<svg id="Livello_2" xmlns="http://www.w3.org/2000/svg" viewBox="0 0 520 380" fill="currentColor">
  <defs>
    <style>.cls-1-wrap{fill:none;}</style>
  </defs>
  <g id="barcelona">
    <g>
      <g>
        <!--<rect x="373.43" y="264.55" width="3.2" height="3.2"/>-->
        <path d="m495.42,204.11c-.09-4.83-.58-8.23-2.74-10.28-2.07-1.96-4.73-1.87-7.31-1.78-1.07.04-2,.08-2.83.13-2.78.14-4.17.21-6.1-.22-1.29-.29-1.55-.34-2.55-2.2-.98-3.34-.69-24.76-.58-32.87.03-2.53.06-4.56.06-5.75v-.35c.05-4.81-1.14-9.71-15.9-16.67-14.69-6.92-30.33-12.56-33.96-13.32l-.19-.04c-3.41-.72-9.11-1.92-17.74-.73-7.28,1-13.18,6.18-15.4,13.51-2.32,7.64-.07,15.68,5.88,20.96,5.21,4.64,11.93,6.45,16.83,7.77,1.6.43,3.6.97,4.14,1.31,4.35,2.76,5.55,6.13,7.07,10.39.8,2.24,1.62,4.55,2.96,6.96.62,1.11,1.44,2.55,2.34,4.14,2.49,4.36,5.9,10.34,6.83,12.73.88,2.27.78,5.01.63,8.24-.44.26-1.65.7-4.05.81-.02,0-.03,0-.05,0-1.27,0-4.44-2.09-6.76-3.63-1.83-1.21-3.72-2.46-5.73-3.55-16.01-8.68-87.8-47.48-136.04-73.24-8.68-4.63-29-15.48-47.78,11.48-5.92,8.49-10.99,15.51-15.46,21.71-11.53,15.96-17.31,23.98-18.27,30.48-.73,4.97-.88,13.82-.98,19.67-.02,1.42-.04,2.61-.07,3.45-.23,7.93-.28,9.57-16.79,9.36-4.77-.06-8.53-.02-12.17.02-7.12.08-13.28.15-24.06-.68-3.07-.24-12.92-4.29-42.46-22.23l-1.85-1.12c-.64-.38-1.56-.89-2.69-1.5-5.83-3.16-19.48-10.57-19.74-18.11-.11-3.38,2.67-6.89,8.27-10.44,4.21-2.67,21.58-2.41,34.27-2.22,10.02.14,19.48.29,25.5-.57,15.14-2.15,22.17-6.67,28.6-13.27,8.32-8.55,11.2-19.99,7.34-29.14-2.93-6.94-9.18-11.08-16.71-11.08-10.49,0-25.18.16-39.39.31-14.5.15-29.49.31-40.41.31-17.31,0-61.95,13.86-64.63,46.58-2.2,26.85,12.79,43.91,44.57,50.7,3.72.8,12.38,3.63,12.38,12.7,0,19.53,8.73,32.66,21.72,32.66,10.76,0,41.05.36,153.91,2.13,39,.61,74.05.81,103.7.81,2.03,0,4.04,0,6.02,0v2.9h3.18v3.2h-3.18v3.2h3.2v-3.2h3.18v-3.2h-3.18v-2.9c1.07,0,2.13,0,3.18,0v2.91h3.2v-2.91c34.79-.08,60.61-.42,74.53-.61,5.65-.07,9.46-.12,11.26-.12,14.24,0,30.1-8.39,31.47-23.95.89-10.17,1.7-20.8,1.53-29.65Zm-406.98,18.75c0-11.43-9.15-17.46-17.71-19.29-28.72-6.14-41.2-19.98-39.26-43.57,2.29-27.97,42.88-40.39,57.92-40.39,10.95,0,25.96-.16,40.48-.31,14.19-.15,28.86-.31,39.31-.31,4.81,0,8.64,2.54,10.51,6.97,2.13,5.05,1.85,13.8-5.96,21.83-5.58,5.73-11.41,9.42-24.71,11.3-5.5.78-14.71.65-24.46.5-19.38-.29-32.49-.21-37.98,3.27-7.76,4.92-11.6,10.42-11.4,16.35.39,11.39,15.84,19.77,23.26,23.8,1.01.55,1.85,1,2.42,1.35l1.83,1.11c25.67,15.59,39.68,22.74,45.44,23.19,11.08.86,17.37.79,24.66.7,3.6-.04,7.32-.08,12-.02,19.78.26,23.25-3.74,23.61-15.89.03-.86.05-2.08.07-3.53.09-5.33.24-14.26.91-18.8.72-4.87,6.87-13.4,17.07-27.52,4.49-6.22,9.57-13.26,15.52-21.8,14.18-20.35,27.6-15.52,39.08-9.39,48.22,25.75,119.99,64.54,136,73.22,1.75.95,3.52,2.12,5.22,3.24,3.98,2.63,7.41,4.9,10.85,4.73,8.82-.42,10.33-4.51,10.44-6.97.18-3.72.36-7.57-1.07-11.25-1.11-2.85-4.38-8.58-7.26-13.63-.89-1.56-1.7-2.98-2.3-4.07-1.07-1.93-1.76-3.89-2.5-5.96-1.64-4.6-3.5-9.82-9.8-13.82-1.4-.89-3.43-1.43-5.99-2.13-4.26-1.15-10.09-2.72-14.11-6.3-4.74-4.21-5.13-9.98-3.92-13.97,1.45-4.78,5.24-8.15,9.88-8.79,7.47-1.03,12.26-.02,15.43.65l.19.04c2.91.61,18.19,6.09,32.48,12.83,12.09,5.7,12.06,8.48,12.04,10.51v.41c0,1.17-.03,3.17-.06,5.66-.34,25.08-.03,33.49,1.3,35.99,2.33,4.37,4.51,5.16,7.12,5.74,2.8.62,4.93.52,7.88.37.81-.04,1.71-.09,2.74-.12.8-.03,1.96-.07,2.46.02.18.39.54,1.66.62,5.44.08,4.45-.09,9.41-.4,14.54-4.1,22.08-20.79,25.46-38.65,25.46-12.54,0-200.45.17-202.47.17l-79.65,5.13c-41.56-.6-57.02-.76-64.09-.76-10.35,0-14.98-13.02-14.98-25.92Zm373.98,28.11c-1.82,0-5.66.05-11.35.13-14.33.19-41.27.55-77.64.62v-3.15h-3.2v3.16c-31.47.04-69.72-.13-112.79-.8-14.29-.22-27.24-.42-39.01-.61l28.86-1.86c1.9,0,189.8-.17,202.34-.17,9.42,0,27.97,0,37.57-15.37,0,.09-.01.17-.02.26-1.08,12.28-15.13,17.8-24.76,17.8Z"/>
      </g>
    </g>
  </g>
</svg>