<?xml version="1.0" encoding="UTF-8"?>
<svg xmlns="http://www.w3.org/2000/svg" id="Livello_2" viewBox="0 0 520 380" fill="currentColor">
  <defs>
    <style>.cls-1-wrap{fill:none;}</style>
  </defs>
  <g id="Mount_Panorama_Circuit">
    <g>
      <g>
        <rect x="39.69" y="252.42" width="3.21" height="2.98" transform="translate(-77.56 25.77) rotate(-18.28)"></rect>
        <rect x="59.33" y="241.12" width="3.21" height="2.98" transform="translate(-63.14 25.41) rotate(-15.64)"></rect>
        <path d="m472.16,96.79c.75-1.98,2.02-3.3,3.9-4.04l3.06-1.25c1.33-.47,2.49-.97,3.54-1.51,3.38-1.75,5.37-4.32,5.92-7.65l.03-1.01-.04-.39c-.86-4.5-3.25-8.34-7.32-11.74-1.97-1.64-4.28-2.21-6.08-2.53-1.32-.23-2.63-.47-3.95-.71-3.14-.57-6.39-1.15-9.6-1.64-2.93-.45-5.9-.8-8.78-1.15-1.24-.15-2.48-.3-3.71-.45-.82-.1-1.64-.2-2.47-.3l-1.23-.15h-3.83s-.69.03-.69.03c-.47.03-.94.07-1.4.14-1.22.2-2.45.38-3.68.57-2.94.44-5.98.9-8.96,1.54-8.16,1.77-16.42,3.69-24.41,5.54l-3.85.89c-15.97,3.7-29.28,6.8-43.04,10.05-14.37,3.4-28.72,6.86-39.61,9.49-13.01,3.15-24.9,6.06-36.35,8.89-11.84,2.93-24.14,6.01-36.55,9.16-6.24,1.58-12.47,3.18-18.71,4.78-5.87,1.51-11.75,3.02-17.63,4.51l-1.06.27c-2.37.61-4.81,1.23-7.19,1.55-5.32.7-10.86.37-16.21.05l-1.07-.06c-2.22-.13-4.49-.31-6.68-.49-1.24-.1-2.48-.2-3.72-.29-1.14-.09-2.28-.18-3.42-.26-2.95-.23-6-.47-9.01-.62-4.01-.19-8.28-.37-12.55-.28-4.74.1-8.22,2.59-10.08,7.2-.44,1.1-1.15,2.7-2.13,3.82-2.31,2.64-4.78,5.16-7.77,8.11-1.34,1.32-2.95,2.33-4.76,3-.75.27-1.55.47-2.4.69-.46.12-.92.23-1.29.34l-3.61.86c-.3.08-.6.15-.89.22l-.46.11c-3.64.89-7.28,1.77-10.92,2.65-8.18,1.98-16.64,4.04-24.95,6.12-11.13,2.79-22.41,5.74-33.33,8.58l-3.5.91c-1.33.34-2.98.77-4.27,1.83-3.16,2.59-4.48,6.3-3.92,11.04.26,2.16.7,4.28,1.13,6.34.13.6.25,1.21.37,1.81l.7,3.5c1.14,5.68,2.31,11.56,3.53,17.34,1.37,6.51,2.77,13.01,4.18,19.5l1.72,7.97c.21.97.42,1.93.63,2.9l2.68,11.8-2.93.97.93,2.82-3.05,1.01-.93-2.82-3.05,1.01.94,2.83,3.05-1.01.93,2.82,3.05-1.01-.93-2.82,2.66-.88v.06c.23.95.44,1.9.66,2.84l-2.38.79.94,2.83,2.11-.7c.84,3.76,1.71,7.62,2.64,11.42,1.09,4.49,4.1,7.46,8.46,8.37,2.56.53,5.35.46,8.52-.21,4.07-.86,8.41-1.82,13.67-3.01,6.28-1.43,12.57-2.86,18.85-4.3l46.9-10.71c4.6-1.05,9.2-2.11,13.8-3.16,7.83-1.79,15.67-3.56,23.51-5.34l7.57-1.72c6.89-1.56,13.77-3.13,20.67-4.68,8.81-1.98,17.63-3.95,26.45-5.91l6.02-1.34c5.7-1.27,11.39-2.54,17.09-3.79,7.7-1.69,15.94-3.48,24.06-5.2.49-.1.97-.22,1.46-.33,1.94-.45,3.77-.88,5.59-.61,3.38.5,5.95,1.89,7.87,4.24,1.5,1.85,2.19,4.12,2.23,7.39.01.96-.02,1.92-.05,2.88-.05,1.5-.1,3.06,0,4.63.17,2.43-.4,4.71-1.77,7.2-.86,1.56-1.5,3.33-1.85,5.11-.56,2.85-.95,5.75-1.32,8.56l-.14,1.02c-.47,3.51-.85,6.59-1.14,9.41-.29,2.86-.51,5.74-.72,8.69-.13,1.86-.25,3.72-.37,5.58-.1,1.56-.19,3.12-.3,4.68-.03.47-.06.93-.09,1.4-.09,1.57-.18,3.05-.41,4.51-.51,3.24.1,5.95,1.87,8.3,2.98,3.96,6.74,7.28,11.17,9.88,1.82,1.07,3.82,1.63,5.93,1.68.1,0,.19,0,.29,0,4.01,0,7.41-1.77,10.09-5.27,1.61-2.09,2.43-4.42,3.23-6.67l.33-.92c1.05-2.92,2.04-5.68,3.53-8.23.8-1.37,1.67-2.24,2.75-2.75,2.04-.96,4.15-1.96,6.28-2.76,3.87-1.45,8.27-2.41,13.85-3,1.41-.15,2.88-.25,4.29-.34,1.19-.08,2.37-.15,3.55-.26,2.2-.2,4.56-.32,6.89.2,3.21.71,5.5,1.72,7.43,3.28,1.79,1.45,3.79,2.62,5.34,3.47,1.05.58,2.12,1.08,3.16,1.57,1.2.56,2.33,1.09,3.39,1.72,7.3,4.29,15.22,7.7,24.22,10.44,3.96,1.2,8.24,2.29,12.72,2.15,2.26-.07,4.52-.26,6.71-.45l1.29-.11c1.47-.12,2.98-.25,4.5-.55,4.53-.89,8.96-2.6,13.53-5.23,2.57-1.48,5.82-3.6,8.17-6.83,4.42-6.09,7.77-11.25,10.52-16.26,1.86-3.37,3.7-6.82,5.48-10.15,2.27-4.25,4.62-8.64,7.01-12.9,2.94-5.24,3.68-10.94,2.2-16.91-1.07-4.3-2.18-7.78-3.49-10.93-2.85-6.83-5.87-13.72-8.79-20.38-1.17-2.68-2.35-5.35-3.51-8.03l-.7-1.31c-.38-1.04-.76-2.08-1.14-3.12-1.02-2.8-2.07-5.7-3.17-8.54-.34-.88-.27-1.61.25-2.58.66-1.23,1.51-2.85,2.27-4.53.71-1.58.99-3.22.83-4.85-.23-2.34-1.17-4.59-2.86-6.89-1.3-1.76-2.54-3.35-3.8-4.85-1.23-1.48-1.43-2.74-.72-4.51.58-1.43,1.17-2.22,2.1-2.8,1.07-.67,2.12-1.5,3.12-2.47,2.6-2.5,2.37-5.74,1.97-7.97-.45-2.5-1.06-4.99-1.64-7.39l-.24-1c-.77-3.16-.49-5.69.89-7.95.34-.56.8-1.28,1.3-1.96.4-.53.82-1.06,1.24-1.58.76-.94,1.54-1.92,2.24-2.98,3.13-4.76,3.75-9.55,1.84-14.23-.5-1.24-.98-2.53-1.44-3.78-.33-.9-.66-1.8-1.01-2.69-.38-.97-.42-1.89-.14-2.8.52-1.66.95-2.91,1.38-4.05ZM41.94,182.63c-.77.53-.83,1.54-.87,2.47-.62-3.24-1.25-6.48-1.87-9.72-.19-.97-.31-1.95-.54-2.91-.35-1.47.05-2.8.71-4.08.16-.32.5-.67.83-.76,3.39-.94,6.8-1.84,10.21-2.74,0,.02,0,.05,0,.07-1.15.47-2.3.93-3.45,1.4-1.35.55-2.08,1.5-2.01,3.01.04.92-.28,1.66-1,2.32-.48.45-.88,1.15-1.01,1.8-.37,1.91-.73,3.84-.43,5.81.05.31.1.61.17.91.24.96.25,1.74-.74,2.42Zm12.25,63.41l.24-.07c.21.97.42,1.94.63,2.9l-.22.06c-.22-.97-.44-1.93-.66-2.9Zm-.66-2.91c-.32-1.43-.65-2.86-.97-4.28-.04-.18-.04-.37-.06-.56l-1.5-6.16c-2.03-9.31-4.05-18.63-6.08-27.94.04,0,.09-.02.13-.03,2.09,9.3,4.17,18.59,6.26,27.89l1.41,6.21c.36,1.6.72,3.2,1.07,4.81l-.26.07Zm13.77,22.42c-1.52.28-3.08.47-4.63.51-2.81.07-4.11-.95-4.76-3.7-.82-3.5-1.62-7-2.41-10.5l.2-.06c.59,2.72,1.19,5.44,1.78,8.15.44,2.02,1.7,3.39,3.49,4.35,2.19,1.18,4.43,1.21,6.82.65,2.05-.48,4.17-.66,6.28-.89-2.26.5-4.51,1.06-6.78,1.48ZM466.52,92.09c-1.55,3.03-2.81,6.15-3.07,9.59-.12,1.62.29,3.15.83,4.64.8,2.2,1.59,4.42,2.48,6.59.87,2.14.65,4.21-.44,6.12-.94,1.63-2.1,3.15-3.28,4.63-1.76,2.22-3.24,4.58-4.11,7.28-1.05,3.29-.75,6.59.06,9.89.6,2.44,1.11,4.91,1.7,7.35.32,1.32-.04,2.25-1.23,3-1.1.69-2.11,1.53-3.11,2.36-.94.77-1.57,1.78-1.92,2.95-.5,1.68-1.08,3.33-1.47,5.04-.41,1.81,0,3.6.99,5.13,1.36,2.08,2.9,4.04,4.35,6.07.69.97,1.37,1.95,1.97,2.97.67,1.12.68,2.31.07,3.49-.8,1.56-1.62,3.11-2.37,4.7-.99,2.11-1.16,4.26-.35,6.51,1.41,3.9,2.73,7.84,4.09,11.73l.31.38c.14.36.25.67.38.97,2.95,6.52,5.92,13.02,8.84,19.55,2.62,5.86,5.01,11.8,6.79,17.98.76,2.63,1.11,5.34.73,8.06-.18,1.29-.51,2.65-1.13,3.79-5.43,9.99-10.35,20.27-16.4,29.92-2.2,3.5-4.57,6.89-6.94,10.28-1.49,2.14-3.68,3.52-5.89,4.79-3.82,2.2-7.87,3.86-12.24,4.59-1.28.21-2.59.28-3.89.36-2.57.16-5.14.35-7.72.4-2.97.05-5.8-.79-8.63-1.62-8.25-2.43-16.14-5.7-23.56-10.08-1.97-1.16-4.13-1.98-6.13-3.09-1.68-.93-3.35-1.91-4.84-3.1-2.84-2.27-6.08-3.56-9.54-4.4-3.46-.84-6.95-.78-10.47-.4-2.25.24-4.51.38-6.77.56-4.44.35-8.79,1.16-13.05,2.42-3.31.98-6.53,2.19-9.6,3.81-2.77,1.46-4.87,3.53-6.39,6.27-1.87,3.38-3.07,7.04-4.42,10.63-.46,1.24-.95,2.5-1.66,3.61-1.95,3.04-4.9,3.71-7.89,1.69-2.03-1.37-3.9-3-5.77-4.6-.85-.73-1.52-1.68-2.27-2.53-.86-.97-1.09-2.04-.88-3.36.31-1.92.39-3.88.53-5.83.23-3.36.41-6.73.64-10.09.16-2.43.33-4.86.57-7.28.28-2.81.6-5.62.96-8.43.38-3,.87-5.98,1.23-8.98.3-2.49.87-4.87,2.11-7.09.96-1.7,1.87-3.46,2.06-5.44.14-1.46.09-2.94.09-4.42.01-2.69.04-5.39,0-8.08-.14-9.12-6.03-15.47-14.1-17.47-3.3-.82-6.55-.51-9.82.22-9.31,2.07-18.64,4.05-27.96,6.09-7.8,1.71-15.6,3.45-23.39,5.19-9.5,2.12-19.01,4.24-28.5,6.38-8.12,1.83-16.24,3.68-24.36,5.52-10.62,2.41-21.25,4.82-31.87,7.24-7.79,1.77-15.57,3.57-23.35,5.35-9.33,2.13-18.65,4.26-27.98,6.38-2.45.56-4.89,1.14-7.36,1.57-1.89.33-3.82.54-5.73.62-4.17.17-8.26.81-12.35,1.61-2.55.5-5.14.79-7.68,1.33-1.82.39-3.41-.07-4.96-.89-1.65-.88-2.13-2.45-2.49-4.13-.51-2.35-1.03-4.7-1.54-7.05l.87-.24-.8-2.86,3.09-.87.8,2.86,3.09-.87-.8-2.87-3.09.87-.8-2.86-3.09.87.8,2.86-.7.2c-.21-.97-.42-1.94-.63-2.9l.54-.15-.8-2.87-.37.1c-.32-1.46-.64-2.93-.96-4.39-.03-.14-.03-.28-.05-.54l-1.44-6.14c-.49-2.13-.97-4.21-1.44-6.29-1.62-7.27-3.27-14.53-4.85-21.81-1.31-6.01-2.54-12.04-3.8-18.06-.14-.69-.08-1.3.7-1.71.79-.41.86-1.3.92-2.08.04-.58-.02-1.2-.15-1.77-.47-2.02-.07-4,.26-5.97.05-.31.25-.67.5-.86,1.2-.92,1.57-2.2,1.57-3.59,0-.72.28-1.13.91-1.33,2.63-.85,5.26-1.7,7.9-2.51,4.99-1.54,9.99-3.03,14.97-4.57,6.47-2.01,12.89-4.16,19.4-6.03,4.79-1.38,9.69-2.42,14.54-3.61,5.84-1.42,11.68-2.83,17.52-4.26.46-.11.92-.27,1.36-.45l1.86-.84c1.72-1.08,3.55-2.07,5.06-3.41,3.3-2.9,6.47-5.95,9.15-9.47,1.26-1.65,2.31-3.43,2.96-5.42.59-1.81,1.93-2.67,3.72-2.67,3.49,0,6.98.06,10.46.23,3.71.18,7.41.49,11.11.77,3.17.24,6.33.51,9.49.75,6.03.44,12.06.8,18.1.53.99-.04,2,.01,2.99-.16,1.08-.19,2.16-.33,3.24-.52,1.05-.19,2.09-.39,3.13-.63,1.07-.25,2.13-.54,3.2-.82,1.04-.27,2.08-.54,3.11-.8,13.21-3.37,26.41-6.75,39.62-10.09,9.63-2.44,19.27-4.85,28.91-7.23,13.31-3.29,26.63-6.55,39.95-9.78,10.8-2.62,21.61-5.23,32.43-7.78,13.95-3.29,27.91-6.53,41.87-9.77,10.94-2.54,21.87-5.1,32.83-7.54,4.1-.92,8.25-1.64,12.41-2.25,2.92-.43,5.87-.35,8.81.06,3.39.47,6.8.74,10.18,1.27,5.41.85,10.79,1.89,16.2,2.76,1.91.31,3.31,1.32,4.39,2.78.94,1.26,1.75,2.63,2.48,4.03.55,1.04.35,1.64-.61,2.33-.69.49-1.44.91-2.21,1.24-1.69.73-3.42,1.34-5.1,2.08-2.83,1.24-5.17,3.05-6.61,5.86Z"></path>
      </g>
    </g>
  </g>
</svg>
