<svg id="Livello_2" xmlns="http://www.w3.org/2000/svg" viewBox="0 0 520 380" fill="currentColor">
  <defs>
    <style>.cls-1-wrap{fill:none;}</style>
  </defs>
  <g id="brands-hatch">
    <g>
      <g>
        <path d="m335.04,247c-.55-.49-56.21-50.33-66.58-59.71-7.71-6.98-5.05-11.04-5.02-11.07l.19-.26c.89-1.39,21.81-34.08,25.75-41.95,3.69-7.38-1.29-19.41-6.25-30.11-.6-1.28-1.11-2.39-1.39-3.08-2.95-7.29-30.38-29.88-31.75-30.6-6.55-3.43-26.87-4.94-30.43-3.44-6.78,2.87-12.42,10.88-18.95,20.17-3.93,5.58-8.39,11.91-13.48,17.6-16.88,18.85-9.56,35.62-3.39,41.78,2.19,2.65,53.71,65.06,64.23,75.98,1.03,1.07,1.83,1.91,2.48,2.58l.25.26c2.54,2.65,2.63,2.75,4.92,4.68l.08.07c.6.5,1.36,1.15,2.39,2.02,2.89,2.46,5.61,4.72,8.31,6.92,1.19.96,2.06,1.71,2.86,2.39,2.78,2.36,4.31,3.66,13.3,9.57,10.23,6.72,15.33,13.01,14.75,18.17-.59,5.32-7.36,9-9.68,9.88-4.31,1.62-37.09,3-41.18,1.75-4.52-2.44-10.02-2.79-14.88-3.1-3.36-.21-7.17-.46-8.56-1.49l-.14-.11c-1.94-1.43-3.33-2.47-3.51-7.16-.62-16.26-.09-17.46,3.38-25.32,1.11-2.51,2.49-5.64,4.2-10.02,1.48-3.8,2.15-12.12-5.95-16.37-3.26-1.72-6.3-2.02-9.02-.89-3.64,1.51-5.13,4.99-5.46,5.94-.95,2.02-9.44,20.29-14.4,38.77-3.6,13.4-2.96,23.01,2.02,30.25,5.75,8.37,17.13,13.18,35.81,15.13,3.59.38,7.57.54,12.91.54,2.12,0,4.33-.03,6.61-.06l.02,1.29,2.37-.05-.02-1.27,1.78-.02c.2,0,.39,0,.58,0l.02,1.25,2.37-.05-.02-1.24c50.3-.69,54.47-3.52,62.6-9.04l.65-.44c15.07-10.18,22.94-20.75,23.41-31.43.49-11.14-7.33-18.01-8.2-18.74Zm-83.36,52.29v.41s-1.15.01-1.15.01c-5.12.07-9.53.12-13.64-.02,2.75-1.68,5.85-2.92,8.22-2.17.1.03.26.1.46.18,1.15.46,3.42,1.36,6.1,1.59Zm2.38.06c14.74.08,40.03-1.06,43.85-1.7,3.55-.6,6.69-1.96,13.14-7.42,1.02-.86,1.57-1.11,1.8-1.17.1.18.22.49.29.7.25.67.76,1.99,2.08,2.07-7.09,4.81-10.74,7.24-61.15,7.84v-.32Zm62.43-10.95c-.21.07-.41.14-.59.2-.31-.83-.85-2.12-2.24-2.48-1.28-.33-2.68.23-4.56,1.82-5.92,5.01-8.67,6.24-11.7,6.75-3.47.58-29.4,1.82-44.65,1.65-2.57-.03-4.92-.97-6.06-1.43-.3-.12-.53-.21-.67-.25-4.73-1.51-10.48,2.04-13.96,4.74-.47-.04-.93-.08-1.4-.13-16.26-1.7-26.33-5.67-30.77-12.14-3.73-5.42-4.05-13.2-1.02-24.47,5.04-18.75,13.94-37.53,14.06-37.77l.14-.36c.16-.46.77-1.59,1.59-1.92.2-.08.43-.12.68-.12.65,0,1.46.25,2.4.74,4.46,2.35,3.01,6.77,2.68,7.63-1.65,4.24-3,7.29-4.09,9.77-3.98,9.01-4.62,11-3.95,28.38.31,8.04,3.94,10.73,6.34,12.51l.14.1c3.06,2.27,7.55,2.56,12.31,2.86,4.38.28,8.91.57,12.08,2.33,4.77,2.65,41.92.45,46.86-1.41.53-.2,12.99-5,14.18-15.65.9-8.07-5.11-16.42-17.86-24.8-8.63-5.67-10.04-6.87-12.61-9.05-.81-.69-1.73-1.47-2.98-2.49-2.62-2.13-5.29-4.36-8.19-6.83-1.09-.93-1.89-1.6-2.51-2.12q-2-1.68-4.37-4.16c-.69-.72-1.58-1.65-2.75-2.87-10.17-10.56-61.72-72.98-63.91-75.63l-.27-.3c-.55-.55-13.21-13.63,3.51-32.31,5.37-5.99,9.95-12.5,13.99-18.24,5.84-8.29,10.88-15.46,15.75-17.66,2.6-.41,18.96.29,24.47,3.01,3.77,2.78,26.83,22.52,28.68,27.12.34.84.86,1.96,1.53,3.4,2.42,5.21,8.83,19.05,6.34,24.03-3.69,7.37-24.46,39.86-25.31,41.2-1.09,1.52-5.9,9.66,5.97,20.4,9.53,8.62,56.96,51.09,66.37,59.52l.4.35c.06.05,6.07,5.11,5.72,13.08-.29,6.69-5,13.87-13.71,21.02-1.45.42-3.39,1.05-6.04,1.96Z"/>
        <polygon points="251.9 310.35 249.53 310.4 249.58 312.77 251.95 312.73 251.91 310.35 254.27 310.31 254.23 307.93 251.85 307.98 251.9 310.35"/>
        <rect x="254.29" y="310.28" width="2.37" height="2.38" transform="translate(-5.91 4.94) rotate(-1.1)"/>
      </g>
    </g>
  </g>
</svg>