<?xml version="1.0" encoding="UTF-8"?>
<svg xmlns="http://www.w3.org/2000/svg" id="Livello_2" viewBox="0 0 520 380" fill="currentColor">
  <defs>
    <style>.cls-1-wrap{fill:none;}</style>
  </defs>
  <g id="COTA_Circuit_of_the_Americas">
    <g>
      <g>
        <polygon points="91.08 309.98 88.39 308.8 87.11 311.71 89.81 312.89 91.09 309.99 93.78 311.16 95.05 308.25 92.35 307.07 91.08 309.98"></polygon>
        <rect x="92.9" y="311.73" width="3.18" height="2.95" transform="translate(-230.31 274.1) rotate(-66.35)"></rect>
        <rect x="98.86" y="298.05" width="3.18" height="2.95" transform="translate(-214.21 271.36) rotate(-66.35)"></rect>
        <path d="m465.72,21.88c-.22-2.07-1.29-3.66-2.68-4.99-.84-.81-2.03-1.41-3.17-1.72-1.92-.52-3.99-.22-5.66.72-3.14,1.75-6.12,3.82-9.11,5.83-2.24,1.5-4.38,3.16-6.6,4.69-2.59,1.79-5.21,3.52-7.82,5.27-2.49,1.67-5.01,3.3-7.46,5.02-2.15,1.51-4.45,2.79-6.6,4.31-2.74,1.94-5.59,3.72-8.43,5.51-3.82,2.4-7.69,4.73-11.53,7.12-2.88,1.79-5.71,3.65-8.59,5.44-1.94,1.2-3.94,2.32-5.89,3.5-2.91,1.77-5.78,3.59-8.69,5.35-2.35,1.42-4.74,2.79-7.11,4.18-1.96,1.15-3.91,2.33-5.89,3.46-1.71.98-3.45,1.91-5.16,2.89-2.99,1.73-5.94,3.5-8.94,5.22-2.02,1.16-4.08,2.25-6.12,3.38-2.72,1.5-5.44,3-8.15,4.5-1.33.74-2.64,1.52-3.98,2.24-2.14,1.14-4.31,2.23-6.46,3.36-1.66.88-3.28,1.84-4.95,2.7-2.52,1.29-5.07,2.51-7.59,3.81-2.19,1.14-4.34,2.37-6.53,3.51-2.87,1.48-5.77,2.91-8.65,4.37-1.94.98-3.85,2-5.79,2.97-2.03,1.01-4.08,2-6.14,2.97-1.88.89-3.78,1.74-5.66,2.63-2.19,1.04-4.36,2.1-6.55,3.14-.91.44-1.83.87-2.76,1.27-2.33,1-4.68,1.97-7.01,2.97-2.47,1.06-4.93,2.15-7.39,3.22-.93.4-1.86.81-2.8,1.19-1.41.57-2.83,1.1-4.23,1.68-1.69.7-3.35,1.45-5.04,2.15-2.39.99-4.8,1.94-7.19,2.94-1.4.59-2.75,1.28-4.16,1.85-2.58,1.05-5.19,2.02-7.77,3.07-2.97,1.2-5.92,2.42-8.87,3.65-1.17.49-2.32,1.02-3.49,1.5-2.44,1.02-4.88,2.04-7.33,3.03-1.36.55-2.75,1.01-4.11,1.57-2.81,1.15-5.58,2.41-8.41,3.5-1.61.62-2.82,1.66-3.77,2.99-1.2,1.67-1.35,3.43-.15,5.26,1,1.52,2.31,2.67,3.78,3.68,3.1,2.13,6.28,4.15,9.31,6.39,3.84,2.84,7.61,5.78,11.31,8.8,5.29,4.3,10.52,8.68,15.74,13.07,1.17.98,2.28,2.05,3.27,3.2,1.64,1.91,1.2,3.74-.9,5.05-1.38.86-2.92,1.16-4.42,1.61-3.62,1.09-7.33,1.68-11.09,2.02-.9.08-1.48-.15-2.05-.92-1.68-2.27-2.21-5-3.17-7.54-.92-2.46-1.38-5.09-2.06-7.63-.74-2.75-2.6-4.69-4.85-6.22-2.31-1.57-4.8-2.86-7.14-4.37-1.31-.85-2.65-1.25-4.18-1.1-1.52.14-3.04.31-4.56.47,0,.02,0,.04,0,.06-1.06.16-2.11.34-3.18.48-2.59.33-5,1.16-7.27,2.44-1.81,1.02-2.7,2.86-2.61,4.93.08,1.89,1.22,3.25,2.17,4.62,2.36,3.43,4.89,6.75,7.49,10.01,2.69,3.37,5.55,6.6,8.33,9.9,2.14,2.52,4.3,5.03,6.42,7.56,2.8,3.36,5.59,6.73,8.33,10.13.42.53.66,1.25.84,1.92.56,1.98.58,4.02.63,6.06.08,3.26-.02,6.49-.64,9.7-.53,2.73-1.44,5.25-2.9,7.62-2.22,3.6-4.52,7.12-7.68,9.99-1.34,1.21-2.85,2.16-4.57,2.68-2.73.83-5.54,1.33-8.4,1.45-.4.02-.81-.04-1.21-.07-.65-.04-1.3-.15-1.94-.12-1.89.08-3.75-.27-5.22-1.38-1.45-1.09-2.96-2.11-4.42-3.18-4.24-3.08-8.48-6.16-12.74-9.21-2.69-1.93-5.38-3.85-8.11-5.71-2.69-1.83-5.48-3.52-8.15-5.38-4.56-3.16-9.33-5.97-14.2-8.61-.58-.31-1.13-.69-1.73-.95-2.27-1-4.47-2.1-6.94-2.65-1.79-.4-3.47-.41-5.07.25-1.67.69-3.27,1.61-4.8,2.59-2.01,1.28-3.94,2.69-5.87,4.09-2.38,1.74-4.74,3.5-7.07,5.3-1.77,1.37-3.49,2.8-5.22,4.24-2.42,2.02-4.86,4.02-7.23,6.1-3.25,2.84-6.46,5.72-9.65,8.63-2.37,2.16-4.71,4.35-6.99,6.59-1.85,1.81-3.53,3.81-5.43,5.57-1.9,1.76-3.25,3.91-4.68,6.01-.69,1.01-.46,3.16.43,3.82,1.34,1,2.69,2.04,4.16,2.8,3.2,1.66,6.46,3.19,9.73,4.7,3.97,1.83,7.97,3.59,11.96,5.37,2.09.93,4.18,1.86,6.29,2.76,1.09.46,2.19.91,3.28,1.36l-.8,1.83,2.7,1.18.82-1.88c.67.28,1.34.55,2.01.84.23.1.46.2.7.3l-.84,1.91,2.7,1.18.84-1.92c3.8,1.66,7.59,3.33,11.4,4.97,2.1.9,4.25,1.69,6.37,2.57,2.95,1.22,5.9,2.47,8.85,3.7,2.63,1.09,5.26,2.17,7.88,3.27,1.31.55,2.6,1.14,3.92,1.67,2.41.96,4.84,1.86,7.24,2.84,5.51,2.25,10.99,4.54,16.5,6.79,2.91,1.19,5.86,2.27,8.77,3.47,3.1,1.27,6.16,2.66,9.27,3.93,3.52,1.44,7.08,2.79,10.61,4.21,2.12.85,4.21,1.77,6.33,2.61,1.85.72,3.74,1.32,5.58,2.05,2.36.94,4.68,2.01,7.04,2.95,3.45,1.37,6.94,2.66,10.4,4,3.74,1.45,7.47,2.92,11.21,4.36,2.94,1.13,5.9,2.23,8.86,3.32.95.35,1.91.79,2.9.86,2.16.15,4.16-.64,5.88-1.83,2.63-1.82,3.66-4.53,3.47-7.69-.15-2.55-1.6-4.6-2.82-6.69-1.29-2.22-2.83-4.3-4.33-6.4-2.48-3.47-4.97-6.93-7.53-10.33-3.3-4.38-6.71-8.68-10.02-13.05-2.54-3.37-5.01-6.79-7.5-10.2-1.63-2.22-1.36-4.7-.92-7.19.13-.74.32-1.53.71-2.15.76-1.2,1.62-2.35,2.55-3.42,4.18-4.79,8.39-9.56,12.62-14.31,3.11-3.49,6.29-6.91,9.41-10.39,2.34-2.62,4.63-5.28,6.95-7.92,3.26-3.71,6.54-7.4,9.78-11.13,1.88-2.17,3.04-4.66,3.06-7.59,0-.35.13-.7.15-1.06.06-1.01.2-2.03.1-3.03-.26-2.53-.61-5.05-.96-7.58-.31-2.27.1-4.3,1.62-6.13,1.48-1.79,3.22-3.25,5.1-4.56,2.49-1.74,5.17-3.19,7.46-5.25,2-1.8,3.75-3.75,4.95-6.13.72-1.44,1.39-3,1.62-4.58.5-3.4.15-6.83-.46-10.19-.7-3.82-1.36-7.61-.97-11.52.14-1.37.49-2.63,1.18-3.74,2.31-3.72,4.79-7.33,7.76-10.55,2.05-2.23,3.97-4.64,7.07-5.64,1.25-.4,2.43-.66,3.73-.47.9.13,1.83.17,2.74.16,3.45-.04,6.9-.09,10.31.65.25.05.51.11.76.07,1.67-.25,3.24.36,4.77.8,3.03.88,6.06,1.65,9.19,2.08,2.22.3,4.25-.02,6.23-.97,4.16-1.98,6.8-5.43,8.95-9.31,1.77-3.19,3.51-6.42,5.09-9.7,1.02-2.12,2.75-3.36,4.67-4.42,2.55-1.41,5.38-1.83,8.25-1.86,1.93-.02,3.86.16,5.79.21,2.03.05,4.07.11,6.1.03,2.64-.11,5.28-.36,7.91-.56.25-.02.5-.11.72-.23,1.7-.89,3.4-1.79,5.09-2.7,3.26-1.75,6.53-3.49,9.78-5.26,2.72-1.48,5.43-3,8.15-4.47.89-.48,1.82-.88,2.72-1.33.81-.41,1.63-.83,2.41-1.3,1.17-.7,2.27-1.52,3.46-2.17,2.22-1.21,4.65-2.06,6.68-3.63,1.37-1.06,2.87-2.02,3.98-3.31,2.38-2.79,4.49-5.8,5.82-9.27.56-1.46,1.01-2.96,1.62-4.4,1.48-3.51,3.03-7,4.54-10.5.52-1.21,1.02-2.44,1.53-3.66.93-2.25,1.81-4.53,2.8-6.76,1.85-4.18,3.78-8.31,5.64-12.49,1.53-3.44,2.98-6.91,4.47-10.36,1.81-4.19,3.65-8.38,5.45-12.58.68-1.58,1.23-3.22,1.9-4.81,1.88-4.44,3.81-8.86,5.7-13.29.98-2.28,1.38-4.63,1.11-7.14ZM166.04,328.72c-3.73-1.5-7.41-3.09-11.13-4.63-1.88-.78-3.79-1.5-5.67-2.28-3.93-1.64-7.84-3.35-11.79-4.97-4.13-1.7-8.3-3.31-12.44-4.99-1.27-.51-2.49-1.14-3.75-1.67-3.33-1.39-6.67-2.75-9.99-4.15-3.56-1.49-7.12-2.99-10.67-4.51-.74-.32-1.48-.64-2.21-.96l.08-.18-2.7-1.18-.08.18c-1.11-.48-2.21-.97-3.33-1.44-2.76-1.17-5.55-2.24-8.29-3.45-4.32-1.91-8.61-3.9-12.91-5.86-2.36-1.08-4.69-2.2-7.06-3.25-2.29-1.02-2.47-1.53-.72-3.32,3.2-3.26,6.44-6.49,9.72-9.67l-.68,3.07c-1,1.8-1.23,3.94-.61,5.91.63,2.02,2.09,3.69,4,4.59l21.34,10.09-.11.24-2.69-1.18-1.27,2.91,2.7,1.18,1.27-2.91,2.69,1.18.07-.16,67.43,31.87c-.4-.16-.8-.31-1.19-.47ZM458.54,27.53c-1.13,2.61-2.31,5.2-3.44,7.82-1.33,3.08-2.63,6.16-3.94,9.25-1.51,3.56-3,7.12-4.52,10.67-1.32,3.09-2.68,6.15-4.02,9.23-1.31,3.03-2.59,6.08-3.93,9.11-1.4,3.16-2.89,6.28-4.25,9.45-2.48,5.79-4.91,11.62-7.35,17.43-.98,2.33-1.91,4.69-2.93,7-1.12,2.55-2.75,4.79-4.88,6.56-1.47,1.22-3.23,2.11-4.91,3.05-1.99,1.12-4.04,2.16-6.07,3.21-1.49.77-3.01,1.47-4.48,2.27-2.45,1.34-4.85,2.75-7.29,4.1-2.27,1.25-4.58,2.45-6.86,3.68-1.79.96-3.66,1.8-5.33,2.94-2.85,1.94-5.97,2.38-9.29,2.21-4.52-.24-9.05-.55-13.57,0-.81.1-1.63.05-2.44.14-3.62.39-6.91,1.64-9.85,3.79-1.03.75-2.17,1.4-3.01,2.32-.91,1-1.62,2.21-2.29,3.4-1.49,2.66-3.04,5.3-4.31,8.06-1.08,2.35-2.42,4.47-4.21,6.32-1.88,1.95-4.17,2.68-6.81,2.07-1.87-.43-3.69-1.11-5.56-1.54-2.18-.5-4.38-.91-6.59-1.25-1.86-.29-3.76-.33-5.62-.62-4.78-.75-9.53-.38-14.28.21-1.95.24-3.5,1.34-4.99,2.5-3.44,2.68-6.2,5.98-8.86,9.42-1.69,2.18-3.27,4.42-4.69,6.76-.92,1.52-1.69,3.13-2.39,4.76-.29.67-.27,1.49-.29,2.24-.05,1.83-.15,3.67-.03,5.5.12,1.82.51,3.62.77,5.43.39,2.77,1.02,5.54,1.07,8.32.06,3.1-1.24,5.82-3.57,7.98-2.33,2.16-4.93,3.95-7.62,5.58-2.94,1.78-5.27,4.15-7.31,6.83-2.27,2.98-3,6.37-2.49,10.08.35,2.52.49,5.07.86,7.59.45,3.07-.56,5.59-2.56,7.84-2.44,2.73-4.83,5.5-7.26,8.23-4.3,4.83-8.62,9.64-12.9,14.48-2.53,2.85-5,5.76-7.52,8.61-3.41,3.85-6.86,7.65-10.27,11.5-1.9,2.15-3.52,4.47-4.37,7.27-.98,3.24-1.15,6.49-.36,9.78.1.43.37.83.6,1.22,2.06,3.47,4.59,6.59,7.04,9.78,3.34,4.35,6.56,8.8,9.86,13.19,1.52,2.02,3.14,3.97,4.62,6.02,2.75,3.78,5.44,7.6,8.13,11.42.76,1.08,1.43,2.22,2.09,3.36.25.43.45.92.55,1.41.44,2.17-1.22,3.61-3.32,2.83-5.09-1.9-10.18-3.81-15.25-5.76-5.07-1.95-10.13-3.94-15.19-5.94-2.45-.97-4.86-2.03-7.31-3.01-3.61-1.44-7.23-2.84-10.84-4.27l-.43-.57-91.67-43.33.4-.91-2.7-1.18-.37.83-21.29-10.06c-1.43-.67-2.48-1.87-2.95-3.37-.47-1.51-.29-3.09.51-4.45l1.45-6.39c2.62-2.46,5.31-4.85,8.01-7.21,2.6-2.28,5.27-4.47,7.95-6.66,3.11-2.54,6.26-5.03,9.4-7.54,3.71-2.95,7.64-5.57,11.71-7.99,1.19-.71,2.55-.69,3.7-.18,3.8,1.69,7.62,3.36,11.13,5.64,3.8,2.46,7.68,4.79,11.48,7.26,2.34,1.52,4.59,3.18,6.88,4.78,2.88,2.01,5.77,4,8.62,6.05,3.55,2.56,6.98,5.3,10.63,7.71,2.49,1.64,4.68,3.8,7.61,4.74.29.09.56.27.85.31,5.55.77,11.1.72,16.54-.65,3.24-.82,6.07-2.49,8.56-4.8,3.48-3.23,6.02-7.14,8.56-11.08,2.17-3.36,3.31-7.07,3.91-10.97.36-2.41.66-4.83.87-7.25.09-1.05-.06-2.13-.15-3.2-.13-1.47-.36-2.94-.44-4.41-.13-2.6-1.18-4.79-2.78-6.8-2.21-2.78-4.28-5.66-6.53-8.4-2.13-2.6-4.45-5.04-6.63-7.6-3.1-3.64-6.17-7.31-9.23-10.99-1.98-2.39-3.93-4.81-5.84-7.25-.66-.84-1.18-1.78-1.73-2.69-.61-1.01-.35-1.64.79-1.87,1.1-.22,2.22-.34,3.33-.5.55-.08,1.11-.17,1.66-.26,0,.04,0,.08.01.12,1.52-.16,3.04-.37,4.56-.45.58-.03,1.23.13,1.74.41,2.32,1.27,4.59,2.61,6.63,4.33.88.74,1.38,1.57,1.67,2.63.92,3.33,1.78,6.69,2.85,9.97.63,1.91,1.46,3.8,2.49,5.53.76,1.29,1.86,2.44,3.01,3.41,1.31,1.09,2.91,1.62,4.71,1.34,2.67-.41,5.37-.63,8.03-1.1,3.32-.58,6.58-1.47,9.61-2.96,1.56-.77,3.34-1.44,4.3-3.05.79-1.34,1.56-2.74,2.06-4.2.56-1.63-.21-3.22-.74-4.74-.89-2.59-2.87-4.36-4.86-6.11-2.17-1.92-4.29-3.91-6.47-5.82-1.19-1.04-2.47-1.96-3.71-2.95-3.86-3.08-7.69-6.2-11.58-9.24-2.97-2.32-5.97-4.59-9.02-6.8-2.04-1.49-4.18-2.84-6.28-4.25-.25-.17-.54-.3-.76-.51-.61-.59-.5-1.19.28-1.56.83-.39,1.66-.77,2.51-1.09,1.56-.59,3.14-1.11,4.69-1.7.76-.29,1.48-.69,2.22-1.01,2.71-1.15,5.42-2.32,8.16-3.42,2.68-1.07,5.4-2.05,8.1-3.1.93-.36,1.84-.8,2.76-1.19,2.24-.96,4.48-1.93,6.73-2.86,1.64-.68,3.31-1.29,4.96-1.95,1.16-.47,2.31-.98,3.46-1.48,2.28-1,4.55-2.01,6.83-2.99,1.26-.54,2.54-1.02,3.81-1.53,1.65-.67,3.3-1.33,4.94-2.02,3.37-1.41,6.74-2.83,10.1-4.26,1.36-.58,2.68-1.23,4.03-1.82,1.62-.7,3.28-1.32,4.89-2.05,2.03-.93,4.01-1.95,6.02-2.9,1.89-.89,3.81-1.72,5.68-2.64,3.82-1.89,7.62-3.82,11.43-5.73,2.45-1.23,4.93-2.41,7.37-3.65,2.99-1.52,5.95-3.1,8.93-4.63,2.75-1.41,5.55-2.72,8.28-4.17,3.14-1.67,6.21-3.45,9.33-5.17,2.8-1.54,5.63-3.06,8.43-4.6,1.38-.76,2.73-1.57,4.11-2.32,2.54-1.38,5.09-2.73,7.63-4.12,1.25-.68,2.46-1.44,3.71-2.14,2.65-1.49,5.32-2.95,7.97-4.45,1.46-.83,2.89-1.71,4.33-2.57,3.06-1.81,6.13-3.59,9.18-5.42,3.71-2.22,7.38-4.48,11.08-6.71,3.83-2.31,7.69-4.56,11.5-6.9,2.64-1.62,5.19-3.37,7.81-5.03,2.53-1.61,5.09-3.16,7.63-4.76,1.98-1.25,3.94-2.52,5.89-3.81,2.59-1.7,5.17-3.41,7.74-5.14,4.06-2.72,8.11-5.45,12.16-8.18,2.53-1.7,5.07-3.37,7.57-5.11,2.72-1.89,5.37-3.87,8.09-5.74,1.21-.83,2.5-1.59,3.82-2.21,1.59-.75,2.31-.22,2.58,1.56.24,1.62-.39,3-1,4.4Z"></path>
      </g>
    </g>
  </g>
</svg>
