<?xml version="1.0" encoding="UTF-8"?>
<svg xmlns="http://www.w3.org/2000/svg" id="Livello_2" viewBox="0 0 520 380" fill="currentColor">
  <defs>
    <style>.cls-1-wrap{fill:none;}</style>
  </defs>
  <g id="Donington_Park_Circuit">
    <g>
      <g>
        <rect x="209.18" y="263.44" width="2.48" height="2.3" transform="translate(-124.57 219.12) rotate(-43.78)"></rect>
        <path d="m410.94,65.31c-.2-.53-.38-1.07-.57-1.61-.34-.99-.7-2.02-1.12-3.03-1.59-3.81-3.65-8.22-6.97-12.08-1.68-1.96-3.61-3.01-5.9-3.19l-3.66-.31c-2.68-.22-5.35-.44-8.03-.66-5.94-.49-12.08-.99-18.11-1.54-5.69-.52-11.32-1.17-16.56-1.8-4.17-.5-8.4-1.06-12.49-1.6l-11.36-1.5c-3.31-.44-6.62-.87-9.94-1.3-2.48-.32-4.69-.19-6.77.41-4.98,1.43-8.93,4.68-11.74,9.67-3.38,6-5.39,12.8-5.97,20.23-.34,4.32-.86,8.92-1.64,14.49-.79,5.59-3.09,10.73-6.86,15.26-1.09,1.31-2.17,2.63-3.25,3.96-1.39,1.7-2.77,3.39-4.18,5.07l-2.25,2.68c-3.09,3.69-6.29,7.51-9.54,11.15-3.79,4.25-7.17,7.44-10.65,10.05-1.98,1.49-4.06,2.94-6.08,4.34-1.05.73-2.1,1.46-3.14,2.2-2.3,1.63-4.91,2.69-7.76,3.13-1.89.3-3.78.57-5.67.85-2.97.43-6.05.88-9.07,1.41-7.97,1.39-18.49,3.13-29.14,4.22-2.14.22-4.66.53-7.2,1.15-5.3,1.31-8.92,4.34-10.74,9.01-.64,1.63-1.29,3.25-1.94,4.88-1.44,3.6-2.92,7.32-4.27,11.04-2.05,5.67-3.54,12.01-4.55,19.4-.8,5.82-2.77,11.39-4.4,15.6-2.17,5.61-5.64,10.37-10.29,14.13-1.89,1.53-3.81,3.03-5.72,4.53-2.87,2.25-5.83,4.57-8.68,6.96-2.82,2.37-5.38,5-7.71,7.5-2.79,2.98-4.92,6.36-7.03,9.85-2.62,4.32-5.6,9.51-7.89,15.27-2.62,6.61-3.93,13.96-4.12,23.13-.06,5.75.81,11.7,2.73,18.7,2.05,7.49,4.25,15.4,6.54,23.51.4,1.41.89,2.69,1.47,3.81,1.98,3.83,5.26,6.51,10.33,8.43,1.43.54,2.9.81,4.4.81,1.29,0,2.61-.2,3.95-.6,2.22-.67,5.5-1.82,8.3-4.03,4.46-3.52,8.81-6.99,13-10.69,2.27-2.01,4.5-4.07,6.71-6.13l26.96-16.36.24-.18c.91-.84,12.62-11.73,24.76-23.43l.3.31,1.79-1.71-.3-.32c.59-.58,1.19-1.15,1.78-1.73l.32.33,1.79-1.71-.33-.35c9.03-8.81,17.45-17.32,20.88-21.64,3.1-3.91,5.61-4.91,6.71-4.17.95.64,1.2,2.69.05,4.72-13.41,23.64-24.39,50.84-28.09,60.36-1.41,2.57-2.95,5.36-4.69,8.5-2.26,4.06-2.18,8.25.23,12.45,2.09,3.65,6.82,5.07,10.76,3.24,2.03-.94,3.62-2.46,5.01-4.78.82-1.36,1.64-2.72,2.47-4.07,1.09-1.79,2.18-3.57,3.25-5.37,1.72-2.9,3.43-5.8,5.14-8.71,2.13-3.62,4.26-7.25,6.42-10.86.89-1.5,1.78-3,2.66-4.51,2.5-4.26,5.09-8.67,7.87-12.81,4.91-7.29,10.04-14.39,16.24-22.8,3.25-4.41,6.65-8.83,9.94-13.1,1.92-2.5,3.84-4.99,5.74-7.5,3.47-4.58,5.63-9.03,6.61-13.62.32-1.52.44-2.93.34-4.2-.19-2.46-1.23-4.82-3.12-7l-.09-.1c-.36-.42-.71-.82-.94-1.2-.07-.12-.12-.2-.14-.26.04-.06.11-.15.21-.27l1.89-2.19c2.13-2.47,4.26-4.95,6.42-7.4,2.41-2.74,4.83-5.46,7.26-8.18,1.73-1.94,3.46-3.88,5.18-5.82,1.92-2.16,3.82-4.33,5.73-6.5,2.99-3.4,5.99-6.79,9-10.17,6.77-7.59,13.56-15.16,20.34-22.73l5.21-5.81c1.43-1.59,2.86-3.18,4.29-4.77,1.78-1.98,3.56-3.95,5.33-5.94,2.99-3.35,5.98-6.7,8.96-10.05,3.24-3.64,6.49-7.29,9.74-10.92,1.68-1.88,3.38-3.72,5.08-5.57,4.22-4.57,8.58-9.31,12.45-14.4,5.47-7.21,8.36-14.7,8.81-22.89.19-3.44.39-6.99-.92-10.56Zm-220.25,237.91l-14.46,8.78c1.74-1.6,3.47-3.21,5.21-4.81,2.6-2.39,5.19-4.79,7.78-7.18,7.41-6.86,14.81-13.72,22.21-20.59l1.82-1.69,1.3,1.35,1.77-1.69.77.81c-12.47,12.06-25.07,23.79-26.4,25.03Zm62.28-45.91c1.85-3.25,1.42-7.07-.98-8.69-1.06-.72-4.97-2.48-10.74,4.79-3.54,4.46-12.76,13.72-22.39,23.06l-.78-.81-1.77,1.69-1.25-1.31.11-.11c.56-.52,1.12-1.04,1.68-1.56l1.23,1.28,1.79-1.71-1.2-1.26c2.7-2.5,5.4-5,8.08-7.52,2.2-2.07,4.38-4.15,6.57-6.23,2.45-2.34,4.91-4.68,7.38-7,4.77-4.46,9.88-9.17,15.61-14.38,1.31-1.19,2.94-2.02,4.86-2.48,2.55-.6,5.49,1.59,6.3,4.68.23.9.12,1.57-.39,2.23-.75.98-1.51,1.95-2.26,2.93-1.5,1.94-3,3.88-4.48,5.83-.55.72-1.1,1.44-1.66,2.15-1.57,2.02-3.2,4.1-4.58,6.35-5.05,8.17-8.79,14.49-12.13,20.5-1.49,2.68-2.97,5.39-4.43,8.1,4.45-9.72,9.72-20.46,15.44-30.54Zm148.67-168.93c-1.63,2.94-3.44,5.63-5.38,8-2.98,3.64-6.19,7.23-9.3,10.69l-2.2,2.46c-6.65,7.46-13.32,14.89-20,22.33l-.54.6c-1.99,2.21-3.98,4.42-5.98,6.63-2.6,2.88-5.21,5.76-7.79,8.66-3.35,3.75-6.69,7.51-10.03,11.27-1.96,2.21-3.91,4.41-5.87,6.61-1.58,1.77-3.16,3.55-4.74,5.32-1.5,1.68-3,3.36-4.5,5.04l-4.95,5.56c-5.95,6.69-11.91,13.38-17.84,20.08-2.88,3.25-5.73,6.53-8.58,9.81l-2.77,3.18c-2.53,2.9-2.67,6.21-.4,9.33.26.36.53.72.81,1.08.53.7,1.03,1.37,1.47,2.05.6.94.7,2.09.33,3.64-.86,3.62-2.43,6.96-4.66,9.95-2.83,3.79-5.75,7.62-8.58,11.32-2.5,3.28-5,6.55-7.48,9.85-3.23,4.3-6.38,8.72-9.16,12.62-.62.86-1.23,1.72-1.85,2.58-2.2,3.05-4.47,6.2-6.52,9.44-2.84,4.49-5.59,9.13-8.24,13.62-.88,1.49-1.76,2.97-2.64,4.46-1.79,3-3.56,6-5.34,9.01-1.71,2.89-3.42,5.79-5.14,8.68-1.03,1.72-2.07,3.44-3.11,5.15-1.01,1.67-2.02,3.33-3.02,5.01-.47.79-1.01,1.34-1.7,1.72-.49.27-.99.35-1.42.22-.4-.12-.74-.42-.97-.86-1.04-1.99-.99-3.86.16-5.89,2.21-3.89,4.53-8.09,7.53-13.64,1.76-3.25,3.5-6.51,5.24-9.77,2.93-5.49,5.97-11.16,9.03-16.69,3.95-7.14,8.15-14.32,12.2-21.26l.34-.58c2.29-3.92,5.18-7.6,7.97-11.15.53-.67,1.06-1.35,1.58-2.02.5-.64.98-1.29,1.47-1.95.89-1.2,1.73-2.33,2.65-3.39,2.9-3.34,3.43-7.14,1.57-11.29-2.36-5.28-7.73-8.35-13.06-7.48-2.48.41-4.82,1.43-6.95,3.05-2.09,1.58-4,3.32-5.6,4.81-5.65,5.26-11.28,10.55-16.91,15.84l-3.12,2.93c-1.7,1.6-3.4,3.21-5.1,4.81-2.51,2.38-5.03,4.75-7.56,7.11-.1.09-.2.18-.3.28l-.96-1-1.79,1.71-1.58-1.65-1.77,1.69-1.58-1.65-1.79,1.71,1.59,1.66,1.77-1.69,1.58,1.65,1.79-1.71.93.97c-.61.56-1.21,1.12-1.82,1.69l-.91-.95-1.79,1.71.89.93c-3.21,2.98-6.42,5.97-9.64,8.95l-.8.74c-2.26,2.09-4.52,4.18-6.78,6.26-2.78,2.57-5.56,5.13-8.34,7.71-2.52,2.34-5.04,4.69-7.55,7.04-4.94,4.61-10.04,9.38-15.12,14-5.26,4.78-10.56,9.34-16.44,14.39-2.81,2.41-5.7,4.05-8.82,5.03-1.81.57-3.53.43-5.4-.42-3.7-1.69-5.85-4.22-6.76-7.98-.82-3.37-1.81-6.73-2.76-9.97-.62-2.12-1.27-4.32-1.86-6.48l-.63-2.29c-1.25-4.51-2.53-9.18-3.07-13.85-.23-2-.35-4.08-.47-6.09-.05-.89-.11-1.79-.17-2.68.42-6.05,1.36-13.9,4.75-21.26,3.04-6.59,6.61-12.74,10.62-18.28,2.59-3.58,5.85-6.9,10.27-10.46,2.15-1.73,4.33-3.44,6.51-5.14,2.61-2.04,5.3-4.14,7.91-6.28,4.36-3.56,7.83-8.26,10.31-13.96,2.84-6.51,4.63-12.53,5.49-18.4.77-5.27,1.62-9.51,2.67-13.36,1.64-6.02,3.98-12.41,7.35-20.11l.11-.25c.11-.25.23-.51.33-.77.83-2.22,2.42-3.69,4.72-4.39,2.29-.69,4.68-1.07,6.71-1.35,2.18-.3,4.41-.56,6.57-.8,2.8-.32,5.7-.66,8.55-1.09,5.23-.8,10.54-1.69,15.67-2.55,2.92-.49,5.85-.98,8.77-1.46.99-.16,1.99-.29,2.99-.42,1.36-.18,2.77-.36,4.16-.62,3.01-.57,5.93-1.82,8.69-3.71.8-.55,1.6-1.09,2.4-1.62,3.03-2.04,6.16-4.15,9.02-6.63,3.16-2.74,7.25-6.41,10.87-10.58,3.46-3.99,6.88-8.12,10.18-12.11,1.05-1.27,2.1-2.54,3.16-3.81,2.1-2.53,4.2-5.12,6.04-7.41,4.21-5.22,6.73-11.46,7.7-19.07.35-2.76.63-5.56.9-8.26.25-2.47.5-5.03.81-7.53.79-6.47,2.71-11.83,5.86-16.4,1.95-2.83,4.19-4.44,6.84-4.93,1.49-.27,3.23-.3,5.03-.07,4.04.51,8.15,1.08,12.13,1.64,3.51.49,7.03.98,10.55,1.44,6.16.8,12.33,1.48,18.63,2.18,5.94.65,12.28,1.34,18.66,1.92,3.29.3,6.64.53,9.87.75,1.56.11,3.12.21,4.68.32.65.05,1.31.1,1.96.16.96.08,1.93.16,2.89.22.41.03.66.17.9.5.35.48.7.96,1.05,1.43.97,1.3,1.89,2.54,2.61,3.85,2.07,3.79,3.47,7.22,4.28,10.49.29,1.18.45,2.38.45,3.49.03,6.76-1.1,11.99-3.58,16.47Z"></path>
      </g>
    </g>
  </g>
</svg>
