<svg id="Livello_2" xmlns="http://www.w3.org/2000/svg" viewBox="0 0 520 380" fill="currentColor">
  <defs>
    <style>.cls-1-wrap{fill:none;}</style>
  </defs>
  <g id="hungaroring">
    <g>
      <g>
        <path d="m360.21,142.62c-8.86-1.89-20.96-6.12-23.28-8.74-12.88-14.52-21.38-31.71-22.3-33.62-2.42-4.99-5.79-8.12-10.02-9.3-8.32-2.32-17.51,3.64-24.22,8-1.75,1.13-5.38,3.49-6.15,3.58h-.21c-3.97,0-4.79-.08-6.13-1.13-.49-.38-1.98-1.5-4.09-3.08-5.56-4.15-22.09-16.51-25.35-19.64.03-.37.12-.89.17-1.25.21-1.28.46-2.87.35-4.85-.36-6.64-7.53-7.73-14.48-8.79-1.41-.21-2.89-.44-4.39-.71-25.76-4.69-43.27-5.29-52.04-1.81-7.46,2.96-12.64,7.97-13.53,13.07-.78,4.51-1.02,10.76,2.29,14.94,3.39,4.29,16.23,13.44,17.71,14.48,10.15,6.83,19.81,14.09,21.58,16.2.49,3.67.52,9.46.55,14.13.01,2.21.02,4.11.08,5.57.39,10.08,3.16,23.21,4.34,28.39.36,1.57,1.03,4.35,1.89,7.91,3.47,14.34,10.68,44.2,11.2,53.5.13,2.27.61,6.57,2.46,9.79,2.77,4.85,6.46,6.67,7.2,7,10.06,4.17,21.09,8.76,21.7,9.04,5.56,2.71,8.03,6.3,8.03,11.67,0,4.03-3.48,8.1-11.26,8.12-11.15.04-19.29-.16-27.16-.34-7.31-.17-14.88-.35-24.77-.35s-13.98,1.5-20.24,4.15c-5.1,2.16-11.91,5.91-16.19,8.47-1.97,1.18-11.86,7.27-13.68,10.76-1.71,3.31-1.26,8.31.08,11.55,1.23,2.98,3.04,4.11,4.34,4.52l.37.12.7.05s93.56-.05,157.53-.07v1.22h2.36v2.38h-2.36v2.38h2.38v-2.38h2.36v-2.38h-2.36v-1.22c.79,0,1.58,0,2.36,0v1.22h2.38v-1.22c19.1,0,34.91-.01,43.73-.01,5.48,0,14.44-5.16,16.31-14.48,1.12-5.58.32-13.55-3.96-18.78-2.77-3.38-6.6-5.16-11.1-5.16-10.09,0-39.03-1.07-39.29-1.08-.11,0-2.75-.28-3.66-4.64-.62-2.96.3-4.92,2.11-7.29,1.04-1.36,3.95-1.41,4.9-1.43,8.26-.15,18.33-.12,20.17.15,1.73.26,6.3,1.35,10.37,2.32,5.23,1.25,10.17,2.42,12.34,2.69,5.92.73,9.68.08,12.2-2.09,3.23-2.78,3.33-7.16,3.44-11.8l.04-1.48c.02-.58.12-3.23.27-7.28l.03-.74c.65-17.64,2.18-58.93,2.58-77.38.1-4.55.4-18.38-20.64-22.87Zm-51.26,115.68c-2.37,3.11-4.62,7.08-3.39,12.96,2.04,9.73,9.87,10.18,10.23,10.2.64.02,8.98.33,18.16.61,7.53,1.46,16.86,3.25,19,3.54,4.19.58,7.4,1.47,7.48,7.14.09,6.61-3.65,7.71-7.7,7.92-4.26.22-10.63.18-16.79.15-2.28-.01-4.55-.03-6.7-.03-3.04,0-6.56.27-10.27.55-4.04.31-8.22.62-12.14.62h-1.44c-28.16-.02-76.38.04-83.02.59-4.51.38-14.23,2.74-20.9,4.47-16.22,0-30.37.01-40.35.02h-14.18c-.61-1.21-1.2-4.59-.52-5.9.44-.69,4.75-4.28,11.13-8.09,4.08-2.44,10.54-6,15.32-8.03,5.29-2.24,8.49-3.6,17.51-3.6,9.85,0,17.36.17,24.62.34,7.5.17,16.01.37,27.33.34,12.53-.04,18.24-7.87,18.24-15.12,0-8.05-4.03-14.09-11.97-17.96-.8-.39-21.79-9.09-21.96-9.16-.02,0-2.23-1.09-3.93-4.06-.8-1.4-1.39-3.97-1.54-6.71-.55-9.95-7.6-39.1-11.4-54.83-.84-3.48-1.5-6.21-1.85-7.75-.88-3.89-3.79-17.34-4.17-27.11-.05-1.35-.06-3.29-.07-5.35-.03-5.16-.06-11.58-.72-15.73-.22-1.4-.68-4.33-24.43-20.31-5.16-3.66-14.12-10.44-16.2-13.07-1.31-1.65-1.63-5.08-.88-9.4.44-2.55,4.32-5.82,9.22-7.76,7.32-2.91,24.44-2.13,48.21,2.19,1.57.29,3.12.52,4.59.75,2.69.41,8.29,1.26,8.54,2.25.07,1.23-.11,2.32-.28,3.37-.25,1.56-.53,3.34.18,5.15.64,1.62,2.17,3.36,27.74,22.47l.14.1c1.94,1.45,3.34,2.49,3.8,2.86,3.35,2.62,6.27,2.62,10.32,2.62h.34c2.71,0,5.75-1.97,9.97-4.71,5.59-3.63,13.25-8.59,18.52-7.12,2.25.63,4.08,2.46,5.6,5.61.97,2,9.85,19.98,23.36,35.22,5.5,6.19,26.84,10.89,27.06,10.93,15.38,3.28,15.2,11.48,15.11,15.88-.4,18.39-1.93,59.63-2.58,77.31-.17,4.48-.27,7.41-.29,8.04l-.04,1.52c-.07,3.04-.14,5.91-1.01,6.67-.39.33-1.83,1.05-6.77.44-1.78-.22-6.97-1.46-11.62-2.56-4.58-1.09-8.91-2.12-10.92-2.42-2.99-.45-16.41-.31-21.33-.22-1.98.04-7.25.13-10.34,4.19Zm-3.32,47.39v1.28c-27.93.01-61.92.03-91.37.04,3.36-.74,6.41-1.31,8.35-1.47,4.77-.4,34.93-.61,82.77-.58h1.44c4.04,0,8.27-.32,12.37-.63,3.66-.28,7.12-.54,10.05-.54,2.14,0,4.4.01,6.68.03,6.2.03,12.61.07,16.96-.15,2.65-.14,10.7-.55,10.55-10.96-.12-8.7-6.59-9.59-10.07-10.07-.19-.03-.45-.07-.75-.12,1.02.01,1.95.02,2.76.02,2.43,0,4.23.83,5.68,2.6,2.69,3.29,3.3,9.01,2.51,12.97-1.15,5.73-6.84,8.85-9.44,8.85-9.19,0-25.94,0-46.1.01v-1.28h-2.38Z"/>
        <rect x="308" y="317.57" width="2.38" height="2.38"/>
      </g>
    </g>
  </g>
</svg>