<?xml version="1.0" encoding="UTF-8"?>
<svg xmlns="http://www.w3.org/2000/svg" id="Livello_2" viewBox="0 0 520 380" fill="currentColor">
  <defs>
    <style>.cls-1-wrap{fill:none;}</style>
  </defs>
  <g id="Imola">
    <path d="m504.79,63.28c-1.84-2.33-6.83-3.88-9.62-3.53-6.37.82-12.63,1.63-18.83,2.44l-.51.07c-22.56,2.94-43.87,5.71-67.06,8.08-4.49.46-9.16-.08-13.53-.74-5.94-.89-11.99-2.17-17.85-3.42-7.68-1.63-15.63-3.32-23.54-4.17-5.14-.56-10.84-.64-14.2,2.95-8.78,9.37-14.18,22.32-16.62,29.2-2.22,6.25-2.68,14.2-1.28,21.81,1.28,6.95,3.31,15.64,5.27,24.06,2.4,10.3,5.68,24.4,5.31,27.08-.58,4.17-7.39,14.36-11.47,20.48-.72,1.07-1.39,2.08-2,3-.32.41-2.19,1.27-3.82.59-.9-.38-1.91-1.09-2.98-1.84-2.06-1.45-4.4-3.1-7.29-3.2-20.66-.68-41.96-.17-62.6.33-18.87.46-38.37.93-57.15.46-.32-.96-.73-2.14-1.65-3.12-.83-.89-3.05-3.27-6.01-2.48-1.99.53-4,1.06-6.04,1.59-12.55,3.28-25.54,6.67-37.31,12.25-11.31,5.36-21.36,13.61-29.9,20.93-7,6-13.47,12.8-19.72,19.38-7.89,8.3-16.05,16.88-25.13,23.62-8.36,6.21-18.58,10.72-28.46,15.08-4.41,1.95-8.58,3.79-12.65,5.79-3.98,1.96-7.4,7.53-5.86,11.78,2.94,8.1,7.83,18.02,12.44,25.27,1.37,2.16,3.89,3.29,7.29,3.29,2.29,0,4.2-.52,4.91-.74,13.4-4.17,26.84-9.31,39.87-14.29,12.47-4.76,25.36-9.69,38.12-13.73,1.82-.58,4.08-.34,6.51-.09.93.09,1.9.19,2.87.25,4.62.25,9.42.78,14.07,1.29,1,.11,2.01.22,3.02.33l13.11,3.43c2.84.74,5.75,1.2,8.69,1.36,6.51.35,14.74.64,19.9-.02,1.78-.23,2.77-1.74,3.65-3.07.24-.36.78-1.18,1.06-1.4,18.6,4.15,44.37,9.63,55.11,11.84,8.65,1.78,9.43,1.76,11.16,1.72.55-.01,1.17-.03,2.25.03.58.03,1.17.04,1.75.04,1.82,0,3.64-.12,5.43-.24,1.16-.08,2.35-.16,3.53-.2,1.29-.05,2.56-.31,3.76-.77l5.16-1.99h-.01c5.61.13,11.46-.17,15.99-.62l7.01-.69c24.47-2.42,45.6-4.5,70.89-8.61,4.83-.78,9.56-5.74,10.69-8.8.67-1.81.67-3.67.68-5.31,0-1.2,0-2.44.31-3.05,1.12-2.23,3.22-4.45,5.49-5.78,2.94-1.72,6.3-2.95,9.86-4.24,4-1.46,8.13-2.96,11.81-5.28,3.52-2.22,6.61-5.94,8.49-10.21,12.13-27.6,27.75-64.01,40.96-100.9,1.17-3.26.31-6.59-.38-9.27-.24-.94-.47-1.83-.61-2.65-.31-1.9-.79-3.73-1.26-5.51-.65-2.45-1.26-4.77-1.34-6.94-.1-2.48.46-3.52.67-3.69,17.92-14.88,33.87-27.86,48.77-39.69,3.51-2.79,3.86-7.52,4.09-10.65l.03-.37c.2-2.65-.9-5.51-3.28-8.51Zm-241.43,240.36h-.11c-2.23.16-4.53.31-6.75.2-1.19-.06-1.89-.04-2.5-.03-1.46.04-2.12.05-10.4-1.66-6.53-1.34-18.59-3.89-31.2-6.62l.48-1.58-2.27-.69-.53,1.76c-7.47-1.61-15.02-3.27-21.65-4.74-2.26-.5-3.55,1.44-4.49,2.87-.34.52-.97,1.48-1.26,1.58-6.14.79-17.16.13-23.74-.26l-.1-.03c1.24,0,2.47-.03,3.69-.09,4.1-.22,7.02-3.91,7.69-7.27.59-2.95,1.19-3.88,1.58-4.14.26-.17.83-.18,1.57-.02,3.57.76,7.19,1.63,10.7,2.48l.16.04c3.25.78,6.61,1.59,9.94,2.31,4.94,1.07,9.77,2.12,14.57,3.16l-.5,1.64,2.27.69.55-1.83c.77.17,1.55.33,2.32.5l-.61,2.01,2.27.69.66-2.19c7,1.51,13.99,3.02,21.15,4.56l1.64.35c8.48,1.83,17.02,3.67,25.78,5.56.99.21,2.06.4,3.18.55-1.38.04-2.77.11-4.11.2Zm237.91-231.98c-.15,2.06-.36,4.89-1.54,5.83-14.94,11.87-30.93,24.88-48.88,39.79-2.2,1.83-3.28,5-3.12,9.18.11,2.92.85,5.71,1.56,8.42.45,1.7.87,3.3,1.13,4.87.18,1.12.46,2.2.73,3.25.53,2.05,1.02,3.98.56,5.28-13.15,36.69-28.7,72.96-40.79,100.46-1.32,3.01-3.53,5.7-5.89,7.2-3.06,1.93-6.67,3.25-10.51,4.64-3.69,1.34-7.5,2.73-10.97,4.76-3.4,1.99-6.44,5.21-8.13,8.6-1.02,2.04-1.02,4.28-1.03,6.08,0,1.17,0,2.29-.26,2.97-.39,1.06-3.3,4.1-5.4,4.44-25.06,4.07-46.09,6.14-70.47,8.55l-7.01.7c-7.47.74-18.64,1.08-25.54-.41-8.76-1.89-17.3-3.73-25.78-5.56l-.16-.03c-7.27-1.57-14.34-3.09-21.42-4.62l.54-1.96-2.29-.63-.57,2.09c-.77-.17-1.54-.33-2.31-.5l.6-2.21-2.29-.63-.63,2.29.76.21c-5.45-1.18-10.94-2.37-16.56-3.59-3.33-.72-6.7-1.53-10-2.33-3.54-.85-7.2-1.73-10.83-2.5-2.61-.56-4.88-.23-6.72.99-2.85,1.87-3.85,5.19-4.51,8.49-.2,1-1.08,1.79-1.39,1.82-7.28.39-15.29-.49-23.12-1.34-4.72-.52-9.6-1.05-14.37-1.31-.83-.04-1.67-.13-2.59-.23-2.98-.3-6.06-.62-9.22.38-12.95,4.09-25.94,9.06-38.53,13.87-12.9,4.93-26.24,10.03-39.43,14.13-1.94.61-3.98.46-4.52.18-4.35-6.85-8.94-16.19-11.7-23.78-.08-.63,1.12-2.75,2.46-3.41,3.92-1.93,8.01-3.74,12.39-5.67,10.22-4.51,20.79-9.18,29.77-15.84,9.54-7.08,17.91-15.88,26.01-24.39,6.14-6.45,12.48-13.12,19.22-18.9,8.2-7.03,17.84-14.95,28.39-19.95,11.2-5.31,23.88-8.62,36.13-11.82,1.7-.44,3.39-.89,5.07-1.33.05.05.11.11.17.18.09.21.25.66.3.82.45,1.33,1.5,4.44,4.84,4.53,19.34.53,39.43.05,58.92-.42,20.51-.5,41.71-1.01,62.17-.33.86.03,2.32,1.06,3.6,1.96,1.32.93,2.68,1.89,4.27,2.56,4.72,1.97,10.07-.01,12.11-3.11.57-.87,1.21-1.82,1.88-2.82l.12-.19c5.23-7.82,11.73-17.56,12.53-23.28.52-3.75-1.61-13.21-5.43-29.61-1.94-8.32-3.94-16.93-5.19-23.71-1.19-6.47-.83-13.14,1-18.31,3.85-10.86,9.38-20.63,15.17-26.82.68-.73,2.71-1.46,8.51-.84,7.58.82,15.35,2.47,22.88,4.06,5.95,1.26,12.11,2.57,18.24,3.49,4.81.72,9.99,1.31,15.23.78,23.21-2.37,44.54-5.15,67.12-8.09l.13-.02c6.36-.83,12.78-1.67,19.33-2.5.67-.08,2.92.65,3.48,1.07,1.39,1.77,1.83,3.08,1.78,3.72l-.03.38Z"></path>
    <polygon points="217.15 281.14 214.87 280.51 214.24 282.8 216.53 283.43 217.16 281.14 219.44 281.76 220.07 279.47 217.77 278.84 217.15 281.14"></polygon>
    <rect x="212.85" y="277.87" width="2.38" height="2.38" transform="translate(-111.55 412) rotate(-74.72)"></rect>
  </g>
</svg>
