<?xml version="1.0" encoding="UTF-8"?>
<svg xmlns="http://www.w3.org/2000/svg" id="Livello_2" viewBox="0 0 520 380" fill="currentColor">
  <defs>
    <style>.cls-1-wrap{fill:none;}</style>
  </defs>
  <g id="_Indianapolis_Motor_Speedway">
    <g>
      <g>
        <rect x="254.84" y="286.35" width="2.94" height="3.16"></rect>
        <rect x="254.84" y="268.5" width="2.94" height="3.16"></rect>
        <path d="m461.83,176.9c-.05-11.61-.1-23.21-.13-34.82,0-2.18-.24-4.14-.71-5.99-.19-.76-.38-1.52-.56-2.29l-.33-1.37c-1.72-7.04-3.9-12.41-6.88-16.92-5.32-8.05-12.74-14.23-22.67-18.92-3.72-1.75-7.62-2.41-11.39-3.04l-1.27-.22c-9.6-1.66-19.12-3.24-28.32-4.78-.54-.09-1.09-.19-1.64-.29-1.87-.34-3.8-.69-5.82-.75-3.04-.1-6.33.01-10.06.33-5.09.44-10.16,2.27-15.47,5.59-3.54,2.21-5.3,5.68-5.1,10.02.01.29.03.59.05.89l.75,12.44c.28,4.57.56,9.13.81,13.7.04.73.05,1.49.04,2.28-.46.01-.92.02-1.38.02-.03,0-.05,0-.08,0-4.42,0-8.58,1.33-12.73,4.07-3.78,2.49-6.19,5.92-7.18,10.17-.59,2.56-.8,5.36-.62,8.54.22,3.89.45,8.41.41,12.86-.02,2.32-.66,4.26-1.89,5.78-2.1,2.59-4.56,4.18-7.5,4.87-2.93.69-6.01,1.06-9.15,1.11-7.64.12-15.61.18-23.68.2-17.48.03-34.96.05-52.44.07-18.61.02-37.22.04-55.83.08-1.88,0-3.72.16-5.44.33-6.26.61-11.51,3.76-15.61,9.35-2.28,3.11-2.99,6.69-2.11,10.65.66,2.97,2.1,5.46,3.29,7.29l.68,1.06c1.69,2.63,3.39,5.26,5.09,7.89.46.71.71,1.4.75,2.1.03.44.06.88.1,1.32.08.97.16,1.88.11,2.7-.28,4.51-2.12,7.97-5.64,10.56-2.07,1.53-4.38,2.09-6.87,1.66-2.62-.45-5.18-2-6.51-3.96-.58-.84-1.16-1.69-1.74-2.53-.54-.79-1.08-1.57-1.62-2.36l-5.93-8.69c-4.53-6.65-9.06-13.3-13.62-19.93-2.94-4.27-7.3-6.74-12.6-7.13-2.65-.2-5.04-.29-7.37-.28-8.4.04-16.93.12-25.18.21l-2.21.02c-1.04.01-1.92.15-2.74.42-1.57.53-3.2,1.08-4.8,1.8-5.1,2.3-8.91,5.9-11.31,10.67-1.59,3.15-2.07,6.34-1.44,9.46.4,1.95.88,4.03,1.75,6,2.18,4.92,4.44,9.72,6.72,14.27,1.24,2.48,2.55,4.51,4,6.21,6.95,8.13,15.94,12.77,26.73,13.77,4.7.44,9.28.1,13.71-.23,2.1-.16,4.15.07,6.27.7,1.24.37,2.07.92,2.52,1.67,1.05,1.77,1.54,3.29,1.55,4.78,0,.83,0,1.66-.02,2.49-.03,1.77-.06,3.6.07,5.45.43,6.45,4.09,9.1,7.08,10.18l.81.3c1.37.51,2.92,1.09,4.6,1.31,3.71.48,7.47.82,11.11,1.14l1.86.17c2.8.25,6.49.58,10.24.81,1.11.07,2.22.15,3.32.22,3.49.24,7.11.49,10.71.49h.11c20.84-.03,42.02-.12,62.51-.2l14.98-.06v.55h2.92v3.16h-2.92v3.16h2.94v-3.16h2.92v-3.16h-2.92v-.56h2.92s0,.56,0,.56h2.94v-.58l6.63-.03h.67c.45,0,.83,0,1.21,0l9.24-.05c6.81-.04,13.61-.07,20.42-.13,25.07-.24,47.67-.45,70.41-.73,6.61-.08,13.08-.33,19.08-.59,4.9-.21,9.21-1.15,13.18-2.87,5.09-2.21,11.05-4.98,16.59-8.76,2.49-1.7,4.76-3.61,6.74-5.66,10.52-10.94,13.28-23.86,8.22-38.4-1.12-3.22-2.39-6.41-3.61-9.5-.57-1.44-1.14-2.89-1.7-4.34l-.88-2.28c-.89-2.3-1.78-4.6-2.65-6.91-.04-.11-.07-.2-.1-.28.08-.04.18-.08.3-.13.22-.08.44-.15.67-.21l4.04-1.27c2.94-.93,5.88-1.85,8.83-2.75,1.24-.38,2.5-.69,3.84-1.01l1.14-.28s.01.06.02.1c.01.1,0,.4-.02.61l-.02.27c-.01.23-.03.46-.06.68-.05.49-.1,1.04-.09,1.64.12,5.67,4.58,10.35,10.16,10.66,2.31.13,4.44-.26,6.33-1.15,3.31-1.55,5.23-4.3,5.4-7.72.06-1.28.13-2.77.13-4.26l-.08-20.35Zm-102.73-38.34v-.3c.59-.68.96-1.57,1.03-2.71.13-2.06.01-4.15-.1-6.22-.33-5.97-.72-11.93-1.08-17.9-.14-2.38-.27-4.75-.4-7.13-.02-.4-.02-.81-.06-1.21-.16-1.75.57-3.01,2.06-3.91,3.15-1.89,6.46-3.39,10.08-4.09,3.86-.74,7.77-.84,11.66-.59,2.66.17,5.3.82,7.95,1.26,8.84,1.49,17.68,2.96,26.51,4.48,2.24.38,4.47.87,6.7,1.35,3.31.72,6.32,2.15,9.14,3.99,3.62,2.36,7.01,5,10.1,8.02,2.49,2.43,4.48,5.21,6.08,8.3,2.87,5.55,4.47,11.49,5.64,17.58.22,1.13.18,2.32.19,3.48.07,19.05.12,38.1.17,57.15,0,2.06-.75,2.87-2.83,3.18-3.41.5-5.48-1.53-4.98-4.96.27-1.86.06-3.63-.72-5.34-1.15-2.5-3.35-3.88-6.1-3.62-1.45.13-2.92.39-4.32.81-5.43,1.64-10.88,3.22-16.22,5.09-4.89,1.71-8.29,5.55-8.24,11.01.02,2.46.39,4.93.71,7.39.62,4.71,1.33,9.41,2,14.12.68,4.76,1.28,9.52,2.04,14.26.73,4.57.44,8.96-1.58,13.19-1.23,2.58-2.94,4.7-5.24,6.38-5.9,4.3-12.41,7.2-19.56,8.67-1.68.35-3.34.81-5.03,1.13-1.14.21-2.3.35-3.46.37-6.03.09-12.06.16-18.09.19-10.75.06-21.49.09-32.24.16-12.92.08-25.85.19-38.77.31-8.56.08-17.13.18-25.69.28-.6,0-1.2,0-2.01,0l-6.58-.07c-1.04.04-2.05.1-3.05.14v-1.14h-2.92v-3.16h-2.94v3.16h2.92v1.23s-.03,0-.04,0c-10.59.07-21.19.1-31.78.16-6.89.04-13.78.15-20.68.13-18.45-.05-36.9-.16-55.35-.26-3.14-.02-6.28-.09-9.42-.22-.95-.04-1.92-.25-2.82-.55-2.18-.73-3.16-2.12-3.19-4.45-.03-2.63.22-5.29-.05-7.9-.75-7.25-3.91-11.45-10.3-12.99-2.68-.65-5.38-.79-8.14-.56-3.89.31-7.78.55-11.69.22-8.97-.76-16.41-4.52-22.28-11.33-.98-1.14-1.84-2.44-2.51-3.79-2.48-5.04-4.9-10.11-7.24-15.22-.6-1.32-.89-2.79-1.19-4.22-.35-1.63-.04-3.22.67-4.73,1.57-3.34,4.07-5.78,7.34-7.41,2.55-1.27,5.18-2.08,8.14-2.05,7.85.06,15.71-.13,23.57-.16,2.63-.01,5.27.1,7.9.26,3.11.2,5.65,1.57,7.42,4.16,7.15,10.45,14.27,20.92,21.41,31.38,1.17,1.71,2.32,3.43,3.9,4.83,6.02,5.36,14.32,5.89,20.86,1.21,5.48-3.92,8.16-9.38,8.49-16.05.05-1.01,0-2.03-.05-3.04-.13-2.73-.8-5.27-2.37-7.58-1.85-2.72-3.6-5.52-5.38-8.28-1.02-1.58-1.95-3.18-2.39-5.05-.44-1.9-.17-3.6,1-5.17,2.67-3.56,6.04-5.96,10.59-6.4,1.61-.16,3.23-.3,4.84-.31,41.92-.06,83.84-.09,125.76-.15,5.02,0,10.03-.19,14.99-1.07,4.75-.84,8.8-2.91,12.12-6.44,1.6-1.69,2.78-3.59,3.47-5.81.74-2.39,1.21-4.8,1.09-7.32-.2-4.1-.28-8.2-.5-12.3-.11-2.1.04-4.16.57-6.18.64-2.46,2.16-4.33,4.3-5.68,2.65-1.68,5.5-2.79,8.7-2.79,1.32,0,2.64-.05,3.95-.09,1.35-.04,2.43-.42,3.21-1.12h.27Zm-198.77,136.49l91.57-.3v.07h-2.92v.75c-2.69.01-5.38.02-8.07.04-23.56.1-47.13.2-70.69.31-3.32.01-6.62-.33-9.89-.87Zm94.51-.23v.72c-.97,0-1.95,0-2.92.01v-.74h2.92v-.08l11.85-.04c9.38-.05,18.75-.06,28.13-.12,13.53-.09,27.06-.2,40.59-.31,11.66-.09,23.31-.19,34.97-.3,3.8-.04,7.6-.08,11.4-.27,1.34-.07,2.65-.59,3.97-.9,4.39-1,8.8-1.93,13.01-3.58,4.18-1.64,8.03-3.87,11.62-6.53,4.74-3.51,6.96-8.44,7.5-14.18.32-3.4-.31-6.76-.79-10.12-.67-4.65-1.33-9.31-1.99-13.97-.67-4.76-1.31-9.52-2.03-14.27-.33-2.23-.48-4.42.19-6.61.1-.34.21-.68.35-1,.05-.12.18-.21.37-.42.29.97.49,1.87.82,2.73,2.98,7.8,5.95,15.61,8.99,23.38,3.43,8.76,1.88,20.63-4.63,28.21-2.29,2.67-4.74,5.14-7.7,7.06-4.9,3.17-10.05,5.87-15.44,8.11-3.94,1.64-8.08,2.34-12.3,2.46-9.57.28-19.14.51-28.72.61-29.6.3-59.19.54-88.79.79l-8.43.04v-.71h-2.94Z"></path>
      </g>
    </g>
  </g>
</svg>
