<?xml version="1.0" encoding="UTF-8"?>
<svg xmlns="http://www.w3.org/2000/svg" id="Livello_2" viewBox="0 0 520 380" fill="currentColor">
  <defs>
    <style>.cls-1-wrap{fill:none;}</style>
  </defs>
  <g id="Kyalami_Grand_Prix_Circuit">
    <g>
      <g>
        <path d="m479.76,116.45c-.54-3.41-2.73-6.34-5.85-7.84-8.83-4.22-21.56-6.68-30.68-8-4.04-.58-7.58-2.92-9.7-6.41l-7.48-12.3c-2.27-3.73-5.42-6.93-9.11-9.25l-10.98-6.92c-3.2-2.02-6.69-3.52-10.36-4.45-3.96-1-8.21.36-10.84,3.48-1.76,2.09-3.44,4.28-4.99,6.52l-70.84,102.07c-4.42,6.37-10.47,11.39-17.49,14.52-3.46,1.54-6.39,2.52-8.49,2.82-2.75.4-6.32-.16-10.61-1.65-9-3.13-16.9-8.89-22.83-16.64l-28.92-37.82-.23-.31-.3-.25c-.54-.46-5.46-4.48-11.74-4.23-8.46.28-13.77,7.64-13.95,7.89-1.3,1.75-31.86,43.01-39.07,58.58-2.93,6.33.87,14.65,3.92,21.34,1.08,2.36,2.09,4.58,2.54,6.15,5.93,20.84-8.45,29.43-9.77,30.17l-44.71,19.83-26.04,2.67-.21.03c-5.23.87-31.64,5.62-37.58,14.05-2.28,3.24-4.78,9.76-2.32,14.46,3.48,6.65,15.6,14.08,23.74,14.08,1.28,0,2.46-.18,3.49-.58,27.74-10.66,73.79-32.76,98.55-47.3,8.04-4.72,15.86-21.51,17.98-29.58,1.54-5.85,2.39-14.89,3.21-23.62.68-7.25,1.32-14.1,2.29-18.65,1.66-7.83,7.36-21.73,12.16-24.82.58-.37,1.04-.52,1.4-.44,4.44.98,9.46,9.44,13.89,16.91,3.78,6.37,7.35,12.39,11.48,16.05,4.92,4.36,17.56,13.86,24.65,19.13,1.33.99,2.21,2.43,2.47,4.07,1.16,7.24,4.1,25.8,6.4,41.9.48,3.36.85,6.45,1.22,9.44,1.56,12.88,2.69,22.19,10.17,25,7.86,2.95,16.32-7.93,30.33-25.96,5.01-6.44,10.68-13.74,16.68-20.73,6.7-7.8,13.6-15.76,20.17-23.31l1.31,1.2,1.77-1.93,2.09,1.91-1.77,1.93,2.09,1.91,1.78-1.94-2.09-1.91,1.77-1.93-2.09-1.91-1.77,1.93-1.35-1.24c.58-.66,1.15-1.32,1.72-1.98l1.4,1.28,1.78-1.94-1.44-1.32c9.73-11.13,18.38-20.93,24.08-27.38,5.84-6.6,12.41-12.57,19.55-17.75,4.04-2.48,66.67-41,86.39-59.75,2.51-2.39,3.69-5.85,3.14-9.27Zm-180.74,159.83c-5.91,7.6-11.01,14.16-15.31,18.59-5.37,5.53-7.03,5.12-7.04,5.11-3.5-1.31-4.41-8.85-5.68-19.29-.35-2.88-.74-6.15-1.24-9.59-.21-1.49-.43-3-.65-4.52.39.88.79,1.78,1.21,2.67,7.02,15.27,9.24,15.38,10.43,15.45.07,0,.14,0,.22,0,1.43,0,5.24-1.2,32.32-26.3-5.12,6.13-9.94,12.32-14.26,17.88Zm172.77-155.64c-19.42,18.46-84.69,58.53-85.34,58.93l-.22.15c-7.59,5.5-14.58,11.84-20.79,18.86-5.66,6.39-14.21,16.09-23.84,27.11l-1.61-1.47-1.78,1.94,1.65,1.51c-.57.65-1.15,1.31-1.73,1.98l-1.7-1.55,1.77-1.93-2.09-1.91-1.78,1.94,2.09,1.91-1.77,1.93,1.74,1.59c-1.36,1.56-2.74,3.15-4.13,4.74-33.15,31.95-49.02,44.79-51.32,45.32-2.28-1.14-8.71-14.65-13.62-27.04-1.64-10.84-3.21-20.73-3.99-25.56-.55-3.45-2.4-6.5-5.21-8.58-5.64-4.19-19.28-14.4-24.18-18.75-3.31-2.94-6.76-8.76-10.1-14.38-5.66-9.54-11-18.54-18.4-20.17-1.54-.34-3.95-.37-6.69,1.4-8.58,5.53-14.27,24.79-15.21,29.26-1.05,4.94-1.71,11.99-2.41,19.45-.79,8.46-1.62,17.2-3.01,22.5-2.03,7.75-9.29,22.11-14.75,25.32-24.49,14.39-70.06,36.26-97.51,46.8-3.19,1.23-15.52-4.47-18.53-10.21-.68-1.3.25-4.92,1.84-7.18,3.13-4.44,21.08-9.19,32.9-11.16l27.04-2.77,45.86-20.34.2-.1c.21-.11,21.02-11.35,13.34-38.33-.59-2.07-1.71-4.53-2.9-7.14-2.33-5.1-5.52-12.08-3.94-15.49,6.91-14.92,38.02-56.93,38.37-57.4.04-.05,3.58-4.86,8.52-5.02,3.07-.12,5.91,1.78,6.76,2.4l28.65,37.46c6.76,8.84,15.78,15.41,26.09,19,5.36,1.86,10.04,2.53,13.91,1.97,2.76-.4,6.24-1.53,10.34-3.35,8.19-3.65,15.24-9.5,20.39-16.92l70.84-102.07c1.43-2.06,2.98-4.08,4.59-6,.91-1.08,2.39-1.56,3.76-1.21,2.96.75,5.77,1.96,8.35,3.59l10.98,6.92c2.78,1.75,5.15,4.16,6.86,6.97l7.48,12.3c3.21,5.28,8.56,8.81,14.68,9.7,7.07,1.02,20.21,3.34,28.66,7.39,1.06.51,1.77,1.46,1.95,2.62.18,1.16-.2,2.29-1.05,3.1Z"></path>
        <rect x="348.97" y="234.34" width="2.63" height="2.84" transform="translate(-60.1 335.07) rotate(-47.55)"></rect>
      </g>
    </g>
  </g>
</svg>
