<?xml version="1.0" encoding="UTF-8"?>
<svg xmlns="http://www.w3.org/2000/svg" id="Livello_2" viewBox="0 0 520 380" fill="currentColor">
  <defs>
    <style>.cls-1-wrap{fill:none;}</style>
  </defs>
  <g id="Weathertech_Raceway_Laguna_Seca">
    <g>
      <g>
        <rect x="231.82" y="324.7" width="2.53" height="2.35" transform="translate(-127.48 500.56) rotate(-80.28)"></rect>
        <path d="m396.02,141.99l-.19-.32c-.95-1.41-1.85-2.94-2.81-4.55l-.24-.4c-4.81-7.83-9.43-15.17-14.15-22.41-11.37-17.42-22.93-34.11-33.81-49.72l-.22-.28c-1.04-1.21-1.95-2.65-2.91-4.17-1.85-2.94-3.94-6.26-7.5-8.36-3.11-1.96-6.76-2.08-9.69-2.19-.79-.03-1.56-.05-2.28-.12h-.14c-6.75-.33-13.39-.31-19.81-.29h-2.94s-.2.01-.2.01c-9.41.54-18.62,4.71-27.53,8.75-3.28,1.49-6.68,3.03-9.98,4.33l-.28.13c-6.91,3.46-13.97,6.16-20.8,8.77-5.07,1.94-10.3,3.94-15.53,6.28-3.15,1.51-5.89,3.3-8.55,5.04-2.24,1.46-4.36,2.85-6.63,4.02-2.92,1.49-6.98,2.54-12.14,3.14-1.61.22-3.25.4-4.83.57-3.71.4-7.55.82-11.42,1.87l-.58.16-.5.34c-2.33,1.62-4.2,3.19-5.17,7.38l-.06.34c-.33,2.5.48,4.71,1.13,6.49.38,1.02.73,2,.74,2.67-.51,3.28-1.45,3.85-1.96,4.16l-.29.19c-3.64,2.74-7.59,5.05-13.2,7.73-2.18.94-4.23,1.57-6.41,2.24-1.7.52-3.46,1.06-5.2,1.74-4.16,1.56-6.02,2.82-8.16,4.26-.41.27-.83.56-1.29.86l-.26.19c-2.32,1.84-4.98,4.13-7.22,7.15l-.38.52c-2.09,2.85-3.59,4.91-5.58,10.29-2.07,5.82-1.72,11.77,1.05,17.67l.2.36c3.68,5.91,7.96,10.91,12.1,15.75,1.14,1.33,2.27,2.65,3.39,4l.07.09c2.45,2.75,4.89,5.47,7.33,8.18,3.69,4.11,7.51,8.36,11.22,12.57.95,1.18,1.93,2.3,2.87,3.37,2.23,2.54,4.33,4.93,5.76,7.86.68,1.4.23,3.1-1.44,5.4-7.3,10.35-14.92,19.98-21.43,28.06-1.77,2.23-3.55,4.45-5.32,6.67-6.54,8.18-13.31,16.64-19.59,25.36l-.22.3-.15.34c-1.59,3.63-1.76,6.94-.5,9.84l.14.28c1.26,2.31,2.52,4.15,6.29,5.21l.34.1.35.03c6.69.5,13.52,2.02,20.13,3.5,3.47.78,7.06,1.58,10.63,2.23,23.55,5.02,45.8,9.56,67.91,13.87l-.23,1.33,2.31.4.22-1.27c.32.06.65.13.97.19l.33.07h1.02s-.24,1.41-.24,1.41l-2.3-.39-.42,2.46-2.29-.39-.43,2.49,2.31.4.42-2.46,2.29.39.43-2.49,2.3.39.31-1.82h1.93c2.78-.03,5.55-.04,8.31-.06,15.34-.08,31.19-.17,46.8-2l.19-.03c6.29-1.09,12.98-4.05,18.64-6.77,5.61-2.6,9.63-4.62,14.27-6.95l2.47-1.24c7.08-3.54,13.75-7.09,21.12-11.03l.2-.11c.33-.21.66-.4.98-.6,3.71-2.25,7.92-4.8,9-13.22l.04-.28v-.29c-.13-3.5-1.6-8.32-3.32-10.8-1.46-2-3.32-4.26-6.02-5.93-3.28-2.5-9.14-3.25-13.28-1.66-3.58,1.24-5.47,2.92-7.15,4.4-.43.38-.87.77-1.35,1.16l-.29.23-.23.29c-1,1.25-2.15,2.37-3.36,3.56-.79.77-1.6,1.57-2.4,2.42-6.04,4.54-11.33,7.76-17.1,10.42-5.6,2.57-10.63,4-14.83,5.05-1.75.3-3.43.73-5.06,1.15-3.58.92-6.68,1.72-9.53.93-1.9-.64-2.28-1.08-3.26-2.24-.17-.21-.36-.42-.55-.64l-.12-.13c-.42-.63-.97-2.85-1.27-4.05-.17-.69-.34-1.36-.51-1.96-3.08-12.34-5.38-24.73-7.6-36.71l-.55-2.95c-.34-2.89-.96-5.71-1.55-8.44-.9-4.14-1.76-8.05-1.6-11.82.79-3.78,2.14-5.33,2.83-5.89,1.49-1.15,3.03-2.12,4.66-3.14.65-.41,1.31-.82,1.89-1.21,11.12-6.95,21.87-13,32.87-18.5l.16-.08c2.2-1.25,7.18-3.42,10.8-4.27,13.89-3.31,27.97-5.45,41.59-7.52,6.36-.97,12.93-1.96,19.32-3.06l1.46-.2c5.41-.75,11.52-1.6,14.5-4.7.28-.21.55-.42.82-.62,2.9-2.2,5.9-4.47,7.88-9.52l.11-.33c2.07-7.34,1.69-13.99-1.08-19.23Zm-166.48,169.57l-.24,1.35c-22.01-4.29-44.18-8.81-67.62-13.81l-.1-.02c-3.45-.63-6.99-1.42-10.41-2.18-6.74-1.5-13.7-3.06-20.77-3.62-.87-.25-.97-.39-1.62-1.57-.37-.96-.23-2.24.4-3.8,2.75-3.81,5.61-7.57,8.5-11.3-.64,1.36-1.5,2.86-2.77,4.62l-.16.28c-1.17,2.68-1.31,5.08-.42,7.14l.06.12c.98,1.8,1.77,2.95,4.42,3.69l.3.05c5.75.43,11.56,1.72,17.18,2.98,2.93.65,5.96,1.33,8.91,1.87,20.85,4.44,40.49,8.45,60.05,12.24l.14.03h4.35c.83-.02,1.67-.02,2.51-.03l-.41,2.37-2.3-.4Zm104.48-42.35c1.48-1.31,2.54-2.25,4.83-3.04l.15-.06c2.14-.84,5.52-.18,6.59.7l.43.3c1.4.83,2.6,2.03,4.1,4.09.71,1.02,1.84,4.29,2,6.72-.68,4.81-2.36,5.83-5.65,7.82-.31.19-.62.38-.94.57-7.28,3.89-13.89,7.4-20.86,10.89l-2.48,1.25c-4.59,2.31-8.55,4.3-14.11,6.88-5.25,2.52-11.34,5.23-16.76,6.19-15.19,1.78-30.12,1.86-45.92,1.94-2.77.01-5.55.03-8.31.05h-.75s.13-.75.13-.75l-2.31-.4-.2,1.16h-1.5c-.28-.05-.56-.11-.84-.16l.24-1.4,2.3.4.41-2.37,2.29.39.15-.85c15.97-.21,31.93-.7,44.61-2.19,1.3-.23,3.51-.52,6.08-.86,7.52-1,17.82-2.37,21.34-4.07,4.71-2.18,8.08-3.87,11.98-5.83l2.11-1.06c5.96-2.98,11.81-6.09,17.78-9.28l-.71-1.32.79,1.27c.28-.17.56-.34.84-.51,3.13-1.89,6.08-3.68,6.91-10.09v-.1c.02-.17.22-4.13-2.83-6.17-2.73-1.83-6.96-1.38-12.54,1.3l-1.41.62c.26-.29.53-.59.78-.9.46-.38.88-.76,1.3-1.13Zm-101.09,40.38c.56,0,1.12-.01,1.68-.02l-.05.3-1.63-.29Zm157.47-150.44c-1.25,3.1-2.87,4.32-5.53,6.33-.36.27-.73.55-1.11.85l-.29.22-.24.28c-1.14,1.34-7.65,2.24-10.42,2.62l-1.58.22c-6.41,1.09-12.95,2.09-19.28,3.05-13.76,2.09-27.99,4.25-42.15,7.63-4.44,1.04-9.97,3.5-12.55,4.94-11.18,5.59-22.1,11.73-33.43,18.82-.61.4-1.23.79-1.86,1.18-1.69,1.07-3.45,2.17-5.24,3.56-2.67,2.13-4.5,5.59-5.43,10.27l-.06.49c-.27,4.8.75,9.45,1.73,13.95.59,2.71,1.15,5.28,1.45,7.87l.61,3.31c2.25,12.1,4.57,24.62,7.71,37.18l.03.11c.15.55.3,1.16.46,1.79.67,2.71,1.36,5.51,2.99,7.2.15.17.28.33.42.48,1.54,1.81,2.91,3.18,6.45,4.36l.14.04c4.7,1.34,9.25.17,13.27-.86,1.6-.41,3.1-.8,4.6-1.05l.28-.06c4.28-1.07,9.98-2.66,16.2-5.51,6.25-2.88,12.18-6.5,18.65-11.39l.09-.06,8.3-3.62c4.46-2.14,7.87-2.69,9.6-1.54,1.51,1,1.53,3.17,1.53,3.47-.65,4.91-2.57,6.08-5.48,7.84-.27.16-.54.33-.81.49-5.94,3.17-11.76,6.27-17.68,9.23l-2.11,1.06c-3.88,1.95-7.23,3.64-11.91,5.8-3.11,1.5-13.55,2.89-20.46,3.81-2.6.35-4.84.64-6.11.87-14.37,1.69-33.22,2.08-51.44,2.24h-4.05c-19.49-3.77-39.07-7.76-59.9-12.2-2.93-.54-5.93-1.21-8.84-1.85-5.68-1.27-11.55-2.58-17.46-3.03-1.47-.44-1.74-.89-2.43-2.14-.51-1.22-.38-2.75.38-4.54,3.31-4.63,4.14-7.75,4.95-10.77.21-.78.42-1.55.67-2.34,1.76-2.22,3.52-4.42,5.26-6.6,1.78-2.22,3.56-4.45,5.32-6.67,6.56-8.14,14.27-17.88,21.66-28.35,4.03-5.55,3.34-9.88,2.04-12.54-1.84-3.77-4.36-6.64-6.79-9.41-.95-1.09-1.85-2.11-2.72-3.2l-.11-.12c-3.74-4.25-7.59-8.53-11.31-12.68-2.42-2.69-4.84-5.39-7.27-8.12-1.13-1.35-2.27-2.69-3.41-4.02-4.11-4.8-7.99-9.33-11.36-14.72-1.91-4.16-2.14-8.14-.72-12.12,1.63-4.42,2.7-5.88,4.65-8.54l.37-.51c1.7-2.3,3.88-4.18,5.81-5.72.44-.29.85-.56,1.24-.83,2-1.35,3.32-2.24,6.74-3.53,1.53-.6,3.1-1.08,4.75-1.58,2.29-.7,4.65-1.42,7.21-2.54l.11-.05c6.01-2.87,10.3-5.38,14.31-8.38,2.88-1.82,4.47-4.68,5.13-9.25l.03-.33c.1-2.09-.57-3.93-1.16-5.54-.42-1.16-.82-2.25-.78-3.04.37-1.5.69-1.88,1.79-2.66,3.15-.8,6.37-1.15,9.76-1.51,1.63-.18,3.32-.36,4.96-.59,5.99-.69,10.71-1.95,14.45-3.85,2.61-1.35,4.98-2.9,7.27-4.39,2.58-1.69,5.02-3.28,7.66-4.55,4.97-2.22,10.11-4.19,15.09-6.09,6.94-2.65,14.12-5.4,21.29-8.98,3.41-1.35,6.84-2.9,10.16-4.41,8.67-3.93,16.87-7.64,24.95-8.13h2.84c6.31-.02,12.83-.04,19.39.26.86.07,1.73.1,2.58.13,2.32.08,4.72.17,6.23,1.13l.11.07c2.11,1.24,3.53,3.48,5.17,6.09,1.02,1.62,2.08,3.3,3.4,4.87,10.81,15.52,22.31,32.11,33.59,49.39,4.68,7.19,9.27,14.47,14.02,22.21l.21.35c.93,1.57,1.89,3.18,2.91,4.71,2.29,4.48,1.55,9.9.5,13.74Z"></path>
      </g>
    </g>
  </g>
</svg>
