<svg id="Livello_2" xmlns="http://www.w3.org/2000/svg" viewBox="0 0 520 380" fill="currentColor">
  <defs>
    <style>.cls-1-wrap{fill:none;}</style>
  </defs>
  <g id="misano">
    <g>
      <g>
        <path d="m462.77,269.5c-.13-.38-.26-.78-.39-1.19-3.91-12.24-10.47-32.36-16.26-50.1-5.36-16.42-9.98-30.6-11.81-36.39-3.46-10.96-7.59-18.14-21.73-29.32-12.92-10.22-143.37-122.15-144.04-122.77l-.05.05c-2.48-2.46-10.86-8.41-19.77-8.84-5.33-.27-12.91,1.4-18.72,10.7-3.47,5.56,2.84,20.73,10.92,31.41,3.57,4.73,13.44,11.31,24.11,18.2l5.91,3.82c28.47,18.39,47.27,30.54,62.68,43.38,9.37,7.81,19.38,18.9,13.88,27.4-2.39,3.69-6.18,5.33-20.23,4.03-38.16-3.55-59.76-7.29-82.63-11.25-3.11-.54-6.24-1.08-9.43-1.63-.72-.12-1.55-.26-2.46-.41-8.29-1.37-23.71-3.91-39.57-9.77-9.84-3.64-31.92-10.68-51.39-16.89-15.29-4.88-29.74-9.48-32.39-10.6-.44-.19-1.05-.39-1.78-.63-5.37-1.76-11.09-4.32-11.09-12.43,0-5.7-.16-10.72-.33-16.02-.11-3.51-.23-7.22-.32-11.47-.13-6.69-5.28-9.8-23.96-14.47-4.29-1.08-14.06,3.27-16.11,9.43-.48,1.43-.67,3.75,3.04,13.36l.1.26c.32.9,1.07,3.37,2.03,6.49,3.65,11.95,11.23,36.8,18.42,52.21.99,2.12,6.48,10.34,14.48,16.66,1.18.93,2.35,1.79,3.51,2.59,2.17,2.66,6.71,7.85,11.04,10.51,2.11,1.3,4.24,1.91,6.3,2.51,3.73,1.07,6.96,2,9.82,6.93.38.65.76,1.33,1.15,2.03,5.3,9.43,13.3,23.68,43.05,23.68h.08c118.7-.11,224.88-.75,225.94-.75h.16c.11-.02,11.63-.87,16.49,14.46,5.21,16.45,6.71,18.53,8.78,21.41l.31.43.2-.14c4.52,24.02,9.55,52.33,9.55,56.79,0,2.63-4.22,7.21-25.25,21.88-5.19,3.62-9.78,6.7-13.83,9.42-6.7,4.5-11.54,7.75-14.68,10.47-3.14,2.72-7.59,11.16-4.93,17.6,1.27,3.06,4.47,6.54,12.52,6.54.69,0,1.41-.03,2.17-.08,19.13-1.34,31.57-4.07,44.74-6.97l.91-.2c.58-.13,1.19-.24,1.84-.36,5.21-.96,13.92-2.57,17.95-14.33l11.7-46.74.06-.32c1.79-12.21.9-15.78-.7-20.59Zm-47.66-55.99c-2.99-9.45-8.34-13.62-12.3-15.46-4.03-1.86-7.48-1.76-8.12-1.71-3.1.02-108.34.65-225.86.75h-.08c-27.47,0-34.52-12.54-39.67-21.7-.4-.72-.79-1.42-1.18-2.08-3.65-6.27-8.14-7.56-12.1-8.71-1.89-.54-3.68-1.06-5.34-2.08-.32-.2-.64-.41-.97-.64.86.33,1.64.59,2.32.78,6.61,1.84,11.11,1.82,16.6-.06,3.36-1.15,10.81-4.2,16.78-6.65,3.1-1.27,6.3-2.58,7.21-2.92.08-.01.17-.02.26-.04,6.29-.94,8.76.26,9.67,1.07,2.16,1.92,7.34,16.32,9.29,21.74,2.01,5.58,2.44,6.74,3.02,7.48.05.08.1.19.16.3,1.37,2.58,5.59,10.45,22.95,10.17,11.39-.17,58.25-.2,104.67-.22v2.73s3.07,0,3.07,0v-2.74c5.32,0,10.62,0,15.86,0,35.26-.01,68.57-.03,80.52-.09.04,0,.08,0,.12,0,6.77,0,10.76,3.19,12.2,9.73.71,3.21,2.14,10.35,3.86,19.29-.82-2.36-1.78-5.27-2.95-8.95Zm42,75.48l-11.55,46.18c-2.82,8.08-7.98,9.03-12.97,9.95-.72.13-1.41.26-2.05.4l-.91.2c-12.93,2.84-25.15,5.52-43.81,6.83-3.22.23-7.26-.02-8.28-2.49-1.29-3.12,1.61-8.88,3.19-10.25,2.84-2.46,7.79-5.79,14.05-9.99,4.07-2.73,8.68-5.83,13.92-9.49,23.96-16.72,28.01-21.45,28.01-27.18,0-8.43-13.88-80.81-16.21-91.39-2.11-9.55-8.68-14.8-18.51-14.8-.05,0-.1,0-.15,0-11.94.07-45.24.08-80.49.09-5.23,0-10.53,0-15.85,0h0s3.05,0,3.05,0v-3.07s-3.07,0-3.07,0v3.07s-3.05,0-3.05,0h0c-46.44.03-93.34.07-104.77.23-13.44.2-16.15-4.85-17.16-6.75-.19-.35-.37-.69-.6-1.02-.35-.76-1.33-3.49-2.2-5.91-4.99-13.88-8.24-21.89-11.1-24.4-3.11-2.74-8.12-3.62-14.89-2.61l-.19.03c-.7.02-1.33.28-8.78,3.34-5.59,2.29-13.25,5.43-16.43,6.52-4.21,1.44-7.43,1.43-12.77-.06-2.41-.67-8.79-3.37-15.65-8.78-7.06-5.58-11.95-12.87-12.63-14.32-7-15-14.49-39.56-18.1-51.37-1.05-3.45-1.75-5.73-2.12-6.77l-.16-.42c-2.49-6.45-2.82-8.64-2.85-9.21,1.14-2.63,6.84-5.12,8.33-4.98,19,4.75,19.05,7.08,19.07,8.34.09,4.28.2,8.02.32,11.55.17,5.26.33,10.22.33,15.82,0,13.46,11.29,17.16,15.54,18.56.53.17.97.31,1.29.45,2.92,1.23,16.16,5.45,32.93,10.8,19.41,6.19,41.41,13.21,51.12,16.79,16.44,6.07,32.26,8.68,40.76,10.08.9.15,1.71.28,2.42.4,3.19.54,6.31,1.08,9.42,1.62,23,3.98,44.72,7.75,83.13,11.32,13.31,1.24,21.43.5,26.25-6.95,4.45-6.88,5.44-18.69-15.17-35.86-15.71-13.09-34.65-25.33-63.31-43.85l-5.91-3.82c-7.21-4.66-19.29-12.46-22.47-16.67-9.48-12.54-10.95-22.46-10.51-24.23,2.84-4.48,6.24-6.92,10.4-7.45,8.85-1.13,17.95,6.75,18.04,6.83l.06-.06c2.19,2.12,12.69,11.19,67.9,58.35,25.69,21.95,69.81,59.57,76.63,64.97,12.9,10.2,16.46,16.32,19.58,26.2,1.84,5.82,6.47,20.01,11.83,36.45,5.79,17.74,12.35,37.84,16.25,50.06.14.44.28.86.41,1.26,1.25,3.78,2.08,6.29.46,17.46Z"/>
        <rect x="299.37" y="184.01" width="3.07" height="3.07"/>
        <polygon points="305.5 180.94 308.55 180.94 308.55 177.88 305.49 177.87 305.49 180.94 302.43 180.94 302.43 184.01 305.5 184.01 305.5 180.94"/>
        <rect x="299.37" y="177.87" width="3.07" height="3.07"/>
      </g>
    </g>
  </g>
</svg>