<svg id="Livello_2" xmlns="http://www.w3.org/2000/svg" viewBox="0 0 520 380" fill="currentColor">
  <defs>
    <style>.cls-1-wrap{fill:none;}</style>
  </defs>
  <g id="nurburgring">
    <g>
      <g>
        <path d="m504.38,189.97l-.04-.54c-.74-9.55-2.23-12.27-40.49-32.34-4.16-2.18-7.11-2.48-18.64-.22-.97.19-6.33.1-13-3.83-.9-.53-93.78-53.6-98.83-54.45-7.62-1.28-89.35,6.2-98.52,7.05-.44.03-10.94.72-15.97,8.6-3.37,5.28-3.39,12.21-.06,20.59.7,1.76,1.85,4.12,3.19,6.85,1.89,3.86,4.25,8.67,6.2,13.59l.31.77c1.83,4.52,3.73,9.19-5.52,16.13-9.09,6.82-49.81,25.26-69.38,34.13-5.77,2.61-9.93,4.5-11.92,5.45-1.17.56-11.6,5.84-16.94,17.63-4.76,10.5-10.56,15.13-19.42,15.47-3.86.15-13.49.24-24.63.34-28.83.27-49.55.52-53.56,1.39-4.18.9-7.84,3.54-9.8,7.06-1.8,3.25-3.2,10.3.73,15.42,3.98,5.18,11.63,6.38,22.74,3.57,17.88-4.52,44.2-8.99,68.1-4.62,18.93,3.46,42.7,11.05,47.39,12.78,1.3.48,3.09.76,5.1.76,3.92,0,8.65-1.08,12.14-3.88,2.67-2.14,5.66-6.11,4.75-12.86-.79-5.87-2.7-10.18-4.39-13.99-2.11-4.75-3.93-8.85-3.73-15.57.1-3.6,4.25-9.52,15.57-14.33,24.82-10.55,78.48-45.69,83.65-49.43l.14-.1c2.72-1.97,6.45-4.67,6.78-9.65.36-5.46-3.52-11.73-12.58-20.34-.23-.22-.41-1.42.52-2.86,1.59-2.47,5.68-4.12,12.35-1.39,17.21,7.05,28.58,15.33,31.21,22.72,1.28,3.61,1.26,6.21-.08,8.68-1.92,3.54-7.76,8.61-24.7,12.69-2.92.7-17.77,5.99-17.73,14.12.03,6.76,9.6,8.96,12.74,9.68,12.47,2.87,64.09,3.14,114.23,2.9v3.19h3.35v3.37h-3.35v3.37h3.37v-3.37h3.35v-3.37h-3.35v-3.2c1.12,0,2.24-.01,3.35-.02v3.22h3.37v-3.24c10.99-.07,21.77-.15,31.91-.23,15.23-.12,28.37-.22,37.78-.22,14.26,0,24-2.72,28.96-8.09,2.47-2.67,3.63-5.92,3.35-9.39Zm-231.92,5.27c.74-1.94,7.72-6,12.25-7.1,15.86-3.81,25.43-9.11,29.28-16.2,3.42-6.31,1.25-12.42.53-14.43-4.29-12.08-21.51-21.3-35.2-26.91-10.69-4.38-17.86-.75-21,4.1-2.63,4.07-2.4,9.05.55,11.86,9.3,8.83,10.5,13.02,10.39,14.72-.1,1.55-1.53,2.69-3.86,4.37l-.14.1c-4.89,3.54-58.42,38.52-82.27,48.65-18.12,7.7-19.8,17.75-19.88,20.65-.24,8.33,2.09,13.58,4.34,18.65,1.64,3.7,3.19,7.19,3.85,12.06.39,2.86-.3,4.89-2.16,6.38-3.28,2.63-8.74,2.59-10.35,1.99-5.01-1.85-28.91-9.5-48.57-13.1-7.33-1.34-14.85-1.9-22.29-1.9-18.08,0-35.67,3.29-48.82,6.62-7.88,1.99-13.34,1.63-15.38-1.02-1.82-2.37-.86-6.38-.15-7.65.96-1.73,2.92-3.1,5.09-3.57,3.61-.78,32.81-1.05,52.13-1.23,11.2-.1,20.87-.19,24.84-.35,15.25-.59,21.92-11.49,25.6-19.63,4.38-9.67,13.18-13.98,13.55-14.16,1.92-.92,6.27-2.89,11.78-5.39,21.32-9.66,61-27.63,70.71-34.91,13.62-10.21,9.86-19.48,7.84-24.47l-.29-.71c-2.05-5.19-4.48-10.13-6.43-14.1-1.27-2.6-2.37-4.84-2.97-6.34-2.43-6.12-2.62-10.88-.57-14.13,3.05-4.83,10.36-5.36,10.54-5.37,34.38-3.17,90.56-7.87,96.64-7.15,6.6,2.48,87.04,47.96,96.57,53.59,8.25,4.87,15.36,5.19,17.96,4.68,10.81-2.12,11.94-1.53,13.98-.46,7.18,3.76,12.92,6.84,17.54,9.42,4.87,4.02,10.03,9.27,10.48,12.77.24,1.87-.01,3.21-.78,4.11-1.87,2.18-7.42,2.59-12.06,2.71-13.98.36-86.21.89-102.46.89-9.07,0-20.31,2.25-30.22,4.23-7.79,1.56-15.15,3.03-19.71,3.03v.08c-21.21-.36-37.72-1.1-43.7-2.48-5.38-1.24-6.86-2.52-7.2-2.9Zm223.36-.69c-2,2.17-7.75,5.81-23.75,5.81-9.43,0-22.59.1-37.83.22-10.89.08-22.88.18-35.23.24v-3.16h-3.37v3.17c-15.95.08-32.39.12-47.75.03,8.65-1.7,17.9-3.36,25.38-3.36,16.26,0,88.57-.53,102.57-.89,7.11-.18,12.41-.97,15.18-4.2,1.59-1.86,2.17-4.29,1.77-7.42-.18-1.37-.74-2.79-1.55-4.22,5.62,4.06,5.78,6.03,6.03,9.18l.04.56c.12,1.49-.37,2.8-1.49,4.02Z"/>
        <rect x="399.01" y="214.51" width="3.37" height="3.37"/>
      </g>
    </g>
  </g>
</svg>