<?xml version="1.0" encoding="UTF-8"?>
<svg xmlns="http://www.w3.org/2000/svg" id="Livello_2" viewBox="0 0 520 380" fill="currentColor">
  <defs>
    <style>.cls-1-wrap{fill:none;}</style>
  </defs>
  <g id="Oulton_Park_Circuit">
    <g>
      <g>
        <rect x="343.54" y="216.37" width="3" height="3.23" transform="translate(-59.74 165.8) rotate(-24.94)"></rect>
        <polygon points="356 236.01 353.28 237.23 354.6 240.18 357.34 238.95 356.01 236 358.74 234.78 357.41 231.83 354.68 233.06 356 236.01"></polygon>
        <rect x="359.27" y="234.02" width="3" height="3.23" transform="translate(-64.87 168.47) rotate(-24.18)"></rect>
        <path d="m467.54,187.66c-4.45-10.3-8.76-19.27-13.32-28.78-3.44-7.16-6.99-14.56-10.6-22.56-1.71-3.8-3.48-7.6-5.24-11.42-3.78-8.16-7.7-16.6-11.08-24.97-1.39-3.43-2.54-7-3.65-10.45-2.13-6.61-4.34-13.44-8.28-19.58-3.34-5.2-9.19-8.73-14.48-11.5-5.75-3.01-14.46-3.83-20.71-1.95-7.07,2.13-13.67,5.01-21.38,9.34l-1.68.95c-4.25,2.41-9.53,5.41-13.7,6.39-9.49,2.24-18.58,3.41-28.2,4.64-4.19.54-8.52,1.09-12.86,1.74-8.55,1.28-20.98,1.88-28.2.56-3.69-.68-7.35-1.39-11.23-2.16-10.03-1.96-20.41-4-32.1-5.48-1.48-.19-2.98-.41-4.48-.64-5.03-.76-10.24-1.54-15.34-1.07-2.18.2-7.57,1.12-10.37,5.29-2.81,4.18-4.6,9.25-6.33,14.16-.98,2.78-1.91,5.4-3,7.85-1.13,2.53-2.55,4.2-3.38,4.53-1.55.62-3.95.51-6.78-.29l-.17-.05c-2.08-.6-6.96-2-10.49,1.99-11.73,13.26-23.69,26.65-35.26,39.6-13.51,15.13-27.48,30.77-41.36,46.5-1.37,1.55-2.54,3.12-3.68,4.64-1.94,2.6-3.77,5.06-6.22,6.83-1.59,1.15-3.69,1.88-5.91,2.66-1.69.59-3.44,1.21-5.15,2.06-.21.1-.43.21-.67.32-2.05.97-4.85,2.29-5.62,5.12-.52,1.92-.38,4.03-.24,6.06.11,1.62.23,3.46-.11,4.39-1.17,3.19-2.82,6.11-4.57,9.21-1.73,3.06-3.51,6.22-4.9,9.79l-.61,1.57c-2.43,6.21-5.18,13.25-4.81,20.28.7,13.28,3.8,26.39,6.79,39.07.63,2.69,1.27,5.37,1.88,8.06.68,2.98,2.4,8.41,6.26,11.26,2.55,1.88,5.76,2.9,8.87,2.9,1.04,0,2.06-.11,3.05-.34,3.68-.87,8.26-3.83,9.62-8.3,1.19-3.91.36-9.29-2.52-16.46-1.6-3.98-3.32-7.54-4.98-10.98-1.75-3.61-3.39-7.02-4.94-10.93-2.32-5.85-3.69-12.63-3.96-19.61-.2-5.13.64-10.34,2.35-14.69,1.71-4.33,6.08-10.49,9.35-13.17,23.67-19.43,44.58-37.87,66.72-57.4,10.08-8.89,20.5-18.08,31.26-27.42,2.42-2.1,6.48-3.88,10.61-4.66,3.83-.72,8.12-.39,11.18.87,3.08,1.27,6.88,3.13,8.97,6.3,2.79,4.23,4.83,9.57,6.8,14.74.85,2.22,1.72,4.51,2.66,6.72,2.72,6.44,5.35,11.29,8.27,15.29,8.66,11.84,18.18,22.9,27.38,33.6,2.3,2.67,4.9,5.33,7.41,7.9,2.52,2.58,5.14,5.25,7.35,7.84l1.63,1.91c3.59,4.2,6.42,7.53,10.68,12.72,2.92,3.56,7.97,5.22,11.4,5.56,4.63.45,9.55.03,13.83-1.19,2.91-.83,5.38-2.38,7.77-3.88,1.03-.64,2-1.25,2.97-1.78,10.42-5.69,20.6-10.79,30.76-15.43l1.15,2.56,2.74-1.23-1.15-2.56c.91-.41,1.82-.81,2.73-1.21l1.15,2.55,2.74-1.23-1.13-2.51c2.69-1.16,5.39-2.3,8.09-3.41,14.44-5.88,26.77-10.14,37.7-13.01,2.73-.72,5.76-.97,8.53-.71,14.13,1.35,28.24-.2,41.37-2.08,3.99-.57,7.98-2.9,10.94-6.39,2.65-3.11,4.12-9.67,1.89-14.84Zm-150.86,53.36c-1.15.63-2.26,1.32-3.33,1.99-2.07,1.3-4.03,2.52-5.98,3.08-3.41.97-7.5,1.32-11.23.96-2.64-.26-5.45-1.54-6.68-3.03-.28-.35-.55-.67-.82-1,.62.29,1.23.59,1.88.86,2.13.9,6.73,1,8.09,1.01h.13c1.92,0,3.76-.31,5.33-.9,2.63-.99,5.16-2.28,7.62-3.53,1.02-.52,2.04-1.04,3.07-1.54,4-1.94,7.99-3.92,11.98-5.89,6.2-3.07,12.61-6.24,18.97-9.23.1-.05.2-.09.3-.14l.97,2.09c-10.02,4.6-20.05,9.64-30.32,15.25Zm34.82-19.76l.95,2.05c-.91.4-1.82.82-2.72,1.23l-.97-2.09c.92-.4,1.82-.8,2.74-1.19Zm12.97-3.05c-3.1,1.26-6.18,2.57-9.26,3.91l-.94-2.03c.06-.02.12-.05.17-.07,3.7-1.55,7.53-3.15,11.18-4.99,2.21-1.11,4.29-2.5,6.31-3.84,2.55-1.69,4.95-3.29,7.54-4.35,1.03-.42,2.35-.36,3.74-.31,1.02.04,2.07.09,3.13-.04,1.72-.21,3.43-.5,5.08-.78,2.87-.48,5.58-.94,8.37-1.04.95-.04,1.92.1,2.93.32-11.14,2.95-23.66,7.27-38.26,13.22Zm95.85-20.24c-1.88,2.21-4.28,3.66-6.6,3.99-12.7,1.82-26.31,3.32-39.71,2.04-1.1-.1-2.24-.14-3.38-.12-1.33-.18-2.7-.57-4.14-.99-2.2-.64-4.47-1.3-6.79-1.22-2.99.11-5.92.6-8.76,1.08-1.62.27-3.29.56-4.95.76-.81.1-1.69.06-2.63.02-1.65-.07-3.36-.14-5,.53-2.87,1.17-5.51,2.93-8.07,4.63-1.94,1.29-3.95,2.63-6,3.66-3.57,1.79-7.34,3.37-11,4.9-1,.42-2.02.85-3.03,1.28l-.45-.97,2.71-1.26-1.36-2.93-2.72,1.27,1.36,2.93-2.71,1.26.42.9c-1.02.45-2.05.9-3.05,1.37-6.38,3-12.81,6.18-19.02,9.25-3.98,1.97-7.96,3.94-11.96,5.88-1.04.51-2.08,1.03-3.12,1.56-2.38,1.21-4.84,2.46-7.31,3.39-1.27.48-2.78.69-4.38.71-3.06-.02-5.92-.34-6.94-.78-3.17-1.34-5.95-2.95-8.56-4.71-1.46-1.72-2.88-3.39-4.44-5.22l-1.62-1.9c-2.37-2.78-5.06-5.53-7.67-8.2-2.44-2.49-4.96-5.07-7.11-7.57-9.11-10.59-18.54-21.55-27.04-33.17-2.6-3.55-4.97-7.96-7.48-13.89-.88-2.09-1.7-4.22-2.56-6.48-2.11-5.52-4.28-11.22-7.49-16.09-3.14-4.76-8.14-7.27-12.15-8.92-4.31-1.77-9.97-2.25-15.14-1.28-2.57.49-9.08,2.07-13.91,6.26-10.78,9.35-21.21,18.56-31.3,27.46-22.09,19.48-42.96,37.89-66.53,57.23-4.72,3.87-9.51,11.18-11.42,16.01-2.07,5.23-3.07,11.46-2.84,17.53.3,7.76,1.84,15.34,4.45,21.92,1.64,4.14,3.42,7.83,5.15,11.39,1.69,3.49,3.28,6.79,4.79,10.55,3.04,7.55,2.63,10.78,2.31,11.82-.43,1.43-2.51,3.04-4.52,3.52-1.91.45-4.45-.12-6.16-1.38-1.45-1.07-2.82-3.82-3.59-7.18-.62-2.71-1.25-5.41-1.89-8.11-2.92-12.38-5.95-25.18-6.62-37.83-.29-5.53,2.06-11.54,4.34-17.36l.62-1.59c1.2-3.1,2.79-5.91,4.46-8.88,1.81-3.21,3.68-6.52,5.05-10.25.85-2.32.67-4.94.52-7.26-.08-1.19-.17-2.51-.06-3.37.47-.33,1.43-.78,1.93-1.02.29-.14.56-.27.81-.39,1.31-.65,2.77-1.17,4.33-1.71,2.6-.91,5.28-1.85,7.7-3.6,3.32-2.4,5.56-5.41,7.73-8.31,1.05-1.41,2.13-2.86,3.31-4.2,13.86-15.71,27.82-31.35,41.33-46.47,11.57-12.96,23.54-26.35,35.28-39.62.47-.53,1.21-.5,3.31.1l.17.05c4.43,1.27,8.23,1.29,11.3.06,3.75-1.5,6.11-5.77,7.18-8.18,1.2-2.7,2.22-5.58,3.2-8.36,1.66-4.7,3.23-9.14,5.55-12.59.75-1.11,2.84-2.01,5.2-2.22,4.26-.4,9.03.33,13.65,1.02,1.56.24,3.12.47,4.65.66,11.46,1.46,21.71,3.46,31.63,5.41,3.9.76,7.59,1.49,11.32,2.17,8.35,1.53,21.67.8,30.5-.52,4.28-.64,8.57-1.19,12.72-1.73,9.38-1.2,19.07-2.45,28.91-4.77,5.14-1.21,10.91-4.49,15.55-7.12l1.65-.93c7.35-4.13,13.32-6.74,19.97-8.74,4.44-1.33,11.37-.68,15.45,1.45,4.21,2.21,9.36,5.23,11.84,9.08,3.45,5.37,5.42,11.48,7.51,17.94,1.15,3.57,2.34,7.26,3.82,10.92,3.45,8.53,7.4,17.05,11.22,25.29,1.76,3.79,3.51,7.57,5.21,11.35,3.64,8.08,7.21,15.52,10.67,22.71,4.53,9.44,8.81,18.35,13.21,28.52,1.1,2.54.29,6.26-.8,7.53Z"></path>
      </g>
    </g>
  </g>
</svg>
