<svg id="Livello_2" xmlns="http://www.w3.org/2000/svg" viewBox="0 0 520 380" fill="currentColor">
  <defs>
    <style>.cls-1-wrap{fill:none;}</style>
  </defs>
  <g id="paul-ricard">
    <g>
      <g>
        <path d="m492.9,171.51c-8.17-11.24-21.93-26.23-31.94-36.1-14.13-13.92-38.55-6.87-60.09-.65-1.79.52-3.57,1.03-5.31,1.52-81.18,22.93-314.93,90.17-317.28,90.84h0c-7.28,2.1-8.88,1.08-13.64-1.96-2.48-1.58-5.56-3.55-10.24-5.6-10.76-4.71-21.1-2.73-27.18.69-2.17,1.22-4.84,3.21-5.18,5.73-1.67,12.35.51,22.61,5.3,24.97,2.1,1.03,4.44.54,6.26-1.3,10.02-10.16,14.61-11.04,16.45-10.66,2.3.47,3.65,3.9,4.84,6.93.44,1.11.85,2.16,1.32,3.1,1.22,2.44,4.04,3.65,9.32,3.65,4.26,0,10.12-.78,18.04-2.32.67-.13,1.17-.23,1.46-.28,4.43-.74,8.5-1.47,12.26-2.14,9.55-1.71,17.08-3.06,23.78-3.36,5.48-.25,11.01.22,16.86.73,9.88.85,20.1,1.72,30.38-1.06,13.62-3.69,13.16-12.43,12.94-16.63-.03-.56-.07-1.3-.04-1.71,2.45-2.52,6.29-5.4,11.15-5.5,6.15-.13,12.14-.06,21.2.03,7.49.08,16.82.17,29.84.2,22.23.05,48.48.2,71.2.36v2.75h2.91v2.93h-2.91v2.93h2.93v-2.93h2.91v-2.93h-2.91v-2.73c.98,0,1.95.01,2.91.02v2.7h2.93v-2.68c25.1.19,44.14.38,45.41.42,1.7.06,6.87.24,8.76-3.44,2.23-4.35-2.03-9.84-6.95-16.2l-1.1-1.42c-2.7-3.51-.4-7.79.36-9.02,1.99-3.19,6.06-6.24,10.29-5.38,10.13,2.06,23.77,1.32,24.34,1.29l.51-.07c28.19-6.45,33.53-23.21,35.81-30.37l.3-.92c.71-2.16,2.25-5.81,4.53-5.94,3.07-.17,7.62,4.73,8.84,7.36l.21.44c1.42,3.05,2.89,6.21,2.89,11.19,0,5.97.32,13.09.93,20.57.52,6.39,2.9,11.17,7.07,14.19,7.04,5.1,16.5,3.03,17.55,2.77,6.78-1.63,11.94-6.04,14.18-12.09,2.62-7.09,1.01-15.43-4.4-22.89Zm-175.39,40.51v2.82c-20.07-.14-43.04-.28-63.25-.35l3.57-.73c32.13-1.08,55.62-2.11,65.98-2.66,2.64-.14,4.83-.84,6.43-1.35.72-.23,1.35-.43,1.83-.52,3.46-.66,3.59-.67,5.66,5.78-5.35-.04-11.17-.09-17.29-.13v-2.84h-2.93Zm174.01-19.75c-1.53,4.16-5.03,7.08-9.84,8.24-.31.07-7.61,1.77-12.5-1.77-2.65-1.92-4.18-5.18-4.55-9.7-.6-7.32-.91-14.26-.91-20.07,0-6.35-1.93-10.48-3.47-13.8l-.2-.43c-1.36-2.94-7.65-11.34-14.79-10.91-3.1.18-7.36,2.09-10.02,10.17l-.31.98c-2.12,6.65-6.52,20.47-31.06,26.18-1.89.09-13.89.56-22.52-1.19-7.14-1.45-13.55,3.05-16.74,8.16-3.41,5.47-3.42,11.61-.02,16.03l1.11,1.44c2.23,2.88,5.86,7.57,6.24,9.49-.41.12-1.28.29-2.95.23-1.14-.04-11.86-.15-27.37-.28l-.14-.45c-2.4-7.49-3.3-10.3-10.1-8.99-.7.13-1.42.37-2.26.63-1.49.48-3.34,1.07-5.5,1.18-10.36.56-33.89,1.59-66.07,2.67l-20.42,4.14.05.23c-9.83-.04-17.34-.12-23.56-.18-9.12-.09-15.15-.16-21.39-.03-5.7.12-11.17,2.79-15.81,7.75-1.55,1.65-1.43,3.83-1.32,5.94.22,4.1.42,7.97-8.4,10.36-9.23,2.5-18.89,1.67-28.24.87-5.8-.5-11.79-1.01-17.67-.74-7.1.32-14.82,1.71-24.59,3.45-3.74.67-7.78,1.39-12.19,2.13-.33.05-.89.16-1.63.31-15.95,3.1-19.87,2.2-20.79,1.72-.31-.66-.63-1.48-.98-2.35-1.59-4.04-3.76-9.57-9.34-10.71-5.51-1.13-12.4,2.67-21.64,11.94-1.21-1.94-2.78-8.11-1.55-17.7,1.44-1.69,11.4-7.41,23.84-1.98,4.24,1.86,7.1,3.68,9.39,5.15,5.72,3.66,9.15,5.44,18.67,2.69,2.6-.75,236.12-67.92,317.25-90.83,1.75-.5,3.54-1.01,5.34-1.53,19.92-5.75,42.5-12.27,54.06-.88,9.84,9.69,23.32,24.38,31.28,35.34,4.18,5.76,5.5,12.01,3.61,17.13Z"/>
        <rect x="320.44" y="226.64" width="2.93" height="2.93"/>
      </g>
    </g>
  </g>
</svg>