<svg id="Livello_2" xmlns="http://www.w3.org/2000/svg" viewBox="0 0 520 380" fill="currentColor">
  <defs>
    <style>.cls-1-wrap{fill:none;}</style>
  </defs>
  <g id="silverstone">
    <g>
      <g>
        <path d="m494.98,210.7c-6.7-23.13-17.9-60.42-24.36-81.03l2.19-.72-.89-2.68-2.15.71c-.3-.93-.58-1.84-.85-2.68l2.11-.7-.89-2.68-2.09.69c-.5-1.53-.94-2.86-1.29-3.91-.04-.11-.1-.3-.17-.57l-.07-.24c-4.43-14.94-9.91-25.13-16.3-30.28-13.31-10.73-20.31-14.22-25.89-16.39-4.17-1.62-15.33-4.01-15.79-4.1l-17.8-4.75c-6.59-1.77-15.47-1.23-20.46,3.98-2.81,2.94-5.51,8.53-2.35,18.53,4.09,12.96,16.56,11.03,25.69,9.61,3.89-.6,7.56-1.17,9.87-.62,3.05.73,5.72,3.23,7.14,6.69,1.49,3.63,2.89,11.47-4.44,23.19-13.29,21.26-32.4,54.52-32.59,54.84l-34.54,58.76c-.08.13-9.16,15.93-12.33,21.68-2.48,4.49-2.68,4.85-11.88,5.21-.86.03-1.87.08-2.99.14-20.15.97-31.35-.21-33.31-3.5-.38-.63-.11-1.75.77-3.2,1.09-1.53,10.1-6.48,19.26-10.58,1.28-.49,7.68-3.22,8.58-9.38.79-5.43-2.89-11.02-11.25-17.08-15.82-11.48-37.14-27.86-39.59-37.59-2.08-8.22-2.99-24.42-3.6-35.14l-.05-.94c-.08-1.34-.15-2.61-.22-3.78-.04-.6-.05-1.19-.07-1.78-.22-7.69-1.71-13.73-18.96-21.51-9.85-4.44-34.13-16.32-57.62-27.8l-.1-.05c-29.15-14.25-47.16-23.03-49.78-23.88-.21-.07-.42-.14-.7-.24-4.87-1.7-13.92-4.87-34.01,17.28-1.82,1.58-10.71,9.85-7.51,17.42,1.93,4.55,7.42,8.2,11.42,10.86.57.38,1.25.83,1.84,1.24-.31.47-.72,1.07-1.26,1.83-.66.93-2.21,2.9-4.18,5.39-3.23,4.1-7.65,9.72-12.2,15.88-7.27,9.84-26.59,36-34,39.91-2.86,1.47-17.29,9.51-20.42,23.16-1.72,7.51.31,15.18,6.05,22.81,2.45,3.26,8.52,8.17,16.06,11.28,8.97,3.69,24.97,9.79,50.25,17.86,29.11,9.3,84.91,25.51,118.25,35.19,15.37,4.46,27.52,7.99,29.1,8.54,2.56.88,3.32,3.64,4.34,8.06.32,1.38.65,2.81,1.09,4.25,1.31,4.23,9.05,10.1,17.45,11.63,1.42.26,2.83.39,4.19.39,6.18,0,11.49-2.62,15.36-7.58,7.49-9.6,11.94-12.47,16.18-14.77,1.61-.75,11-.72,18.66.72,1.23.23,2.47.48,3.72.73l.21.04c9.14,1.83,17.77,3.55,22.73.33,2.95-1.92,5.23-4.18,7.64-6.57,5.73-5.68,12.22-12.11,30.53-14.96,5.09-.79,23.37-4.02,44.93-12.29,24.18-9.27,47.78-19.16,56.61-28.62,6.54-7,9.24-17.55,6.72-26.24Zm-167.85,81.76l-.15-.03c-1.29-.26-2.58-.51-3.84-.75-5.8-1.1-18.94-2.28-23.05-.05-4.92,2.67-10.03,5.94-18.31,16.56-3.18,4.08-7.52,5.68-12.88,4.75-6.79-1.17-12.01-5.81-12.43-7.06-.38-1.21-.67-2.51-.96-3.77-1.16-5.04-2.48-10.75-8.68-12.88-1.74-.6-12.75-3.8-29.42-8.64l-.14-.04c-33.27-9.67-88.96-25.84-117.94-35.1-25.06-8.01-40.88-14.03-49.74-17.68-6.75-2.78-11.71-7.06-13.25-9.11-4.49-5.97-6.13-11.78-4.87-17.28,2.52-10.98,15.54-17.97,17.02-18.73,6.13-3.24,16.97-15.75,36.25-41.85,4.49-6.08,8.87-11.65,12.08-15.71,2.1-2.67,3.61-4.59,4.38-5.67,3.02-4.27,3.45-5.48,3.2-6.96-.35-2.11-2.09-3.27-5.55-5.57-3.11-2.07-7.81-5.19-8.96-7.89-.99-2.32,2.75-7.2,5.85-9.84l.3-.29c9.97-11.02,17.57-16.38,23.22-16.38,1.59,0,2.79.42,3.76.76.3.11.59.21.86.29,2.32.75,27.06,12.84,48.88,23.51l.2.1c23.49,11.49,47.79,23.37,57.71,27.84,14.77,6.66,14.88,10.6,15.02,15.59.02.66.04,1.32.08,1.99.09,1.43.18,3.01.27,4.69.66,11.63,1.56,27.55,3.79,36.4,2.34,9.26,14.95,21.64,42.16,41.38,5.71,4.14,8.91,8.13,8.55,10.68-.36,2.53-4.29,4.07-4.34,4.09l-.24.09c-5.91,2.64-19.9,9.21-22.33,13.23-2.86,4.73-2.03,8.13-.83,10.15,2.42,4.07,7.66,8.28,39.39,6.77,1.1-.05,2.08-.1,2.93-.13,10.52-.41,13.4-1.26,17.49-8.67,3.15-5.71,12.17-21.41,12.26-21.55l34.57-58.82c1.99-3.46,19.8-34.37,32.45-54.6,8.91-14.26,6.93-24.47,4.96-29.29-2.23-5.45-6.64-9.44-11.78-10.67-3.58-.86-7.89-.19-12.47.51-9.89,1.53-16.05,1.96-18.25-5.01-1.74-5.51-1.47-9.5.8-11.87,2.94-3.07,9.21-3.4,13.88-2.14l12.24,3.27c2.98,1.85,7.73,4.49,9.24,5.05,1.81.67,19.37,9.94,22.61,12.19l.75.52c3.56,2.45,8.93,6.16,12.92,12.15,2.69,4.03,5.71,15.13,8.14,24.05,1.28,4.71,2.5,9.16,3.56,12.29,3.45,10.15,7.96,24.3,9.09,28.56,1.16,4.36,4.82,17.8,6.32,22.5.17.54.43,1.32.75,2.28,5.41,16.17,7.51,25.65,6.24,28.18-2.38,4.76-12.47,15.51-15.11,17.54-3.23,2.47-16.87,10.16-25.9,15.25-5.16,2.91-8.89,5.01-9.87,5.66-1.49.99-3.04,2.27-4.18,3.25-19.43,7.09-35.49,9.92-40.14,10.65-20.45,3.18-28.08,10.74-34.22,16.82-2.26,2.24-4.21,4.17-6.58,5.71-2.67,1.73-11.39-.01-17.76-1.29Zm140.82-53.22c2.98-2.28,13.46-13.42,16.14-18.78,2.26-4.52-1.57-17.52-6.05-30.91-.31-.94-.57-1.7-.74-2.23-1.48-4.64-5.12-18-6.28-22.34-1.26-4.74-6.05-19.62-9.16-28.79-1.03-3.02-2.23-7.42-3.49-12.08-2.63-9.65-5.61-20.58-8.62-25.09-4.38-6.56-10.32-10.66-13.87-13.11l-.74-.51c-2.71-1.88-13.67-7.78-19.67-10.81,2.56.64,5.05,1.33,6.42,1.86,5.08,1.97,11.51,5.2,24.11,15.36,3.65,2.94,9.05,10.01,14.08,26.96.15.52.26.89.33,1.08.53,1.55,1.26,3.79,2.14,6.54l-2.26.75.89,2.68,2.22-.74c6.03,19.1,17.57,57.34,25.14,83.48,1.88,6.5-.2,14.46-5.18,19.8-6.23,6.68-22.32,14.22-39.76,21.29,9.41-5.31,21.15-11.97,24.34-14.41Z"/>
        <rect x="471.4" y="123.07" width="2.83" height="2.83" transform="translate(-15.17 154.83) rotate(-18.31)"/>
        <rect x="473.2" y="119.5" width="2.83" height="2.83" transform="translate(-13.95 155.25) rotate(-18.31)"/>
        <rect x="474.97" y="124.85" width="2.83" height="2.83" transform="translate(-15.55 156.06) rotate(-18.31)"/>
      </g>
    </g>
  </g>
</svg>