<?xml version="1.0" encoding="UTF-8"?>
<svg xmlns="http://www.w3.org/2000/svg" id="Livello_2" viewBox="0 0 520 380" fill="currentColor">
  <defs>
    <style>.cls-1-wrap{fill:none;}</style>
  </defs>
  <g id="Snetterton_Circuit">
    <g>
      <g>
        <path d="m473.85,157.8c-.09-.47-.17-.9-.24-1.3-.46-2.55-.82-4.57-2.82-7.29-2.03-2.76-7.42-6.53-8.48-7.26l-.26-.18-57.61-25.67-.5-.18c-.43-.12-4.27-1.08-7.87,1.1-2.12,1.28-3.57,3.8-5.11,6.48-.95,1.66-1.94,3.37-2.9,4.41-3,3.27-5.49,5.62-7.61,7.19-2.37,1.75-4.09,2.73-6.36,3.62-1.54.6-5.07,1.32-7.13,1.67H105.83c-1.08.03-6.57.21-9.08.81l-.59.14c-2.09.49-3.12.78-5.74,2.47-2.73,1.76-7.33,5.9-9.55,9.03-2.28,3.21-3.13,5.92-3.66,8.14-.61,2.58-.35,6.17-.32,6.57l7.45,39.05.14.51c.15.43,1.56,4.26,3.84,6.71,1.95,2.08,5.39,4.06,8.74,5.9l.48.26c.56.31,1.04.6,1.47.87,1.46.9,2.96,1.82,5.29,1.95,2.75.15,5.19-.64,7.91-2.53,2.46-1.71,5.73-6.67,6.63-8.08l32.9-48.87c.51-.72,2.18-2.77,3.85-3.66,1.45-.77,4.39-1.06,5.87-1.06h.01l79.75,1.19c1.88.26,4.09.87,4.62,1.27.98.86,1.47,2.85,1.75,4.27.38,1.89.36,3.42-.05,4.45-.19.48-1,1.01-1.93,1.62-.4.27-.81.54-1.21.83-1.36.64-8.23,3.07-15.49,5.64-16.13,5.71-40.5,14.33-55.32,20.95-22.32,9.97-64.21,33.48-66.62,34.83-1.2.57-3.37,1.41-4.43,1.49-2.22.18-4.25.05-6.06-.39-1.89-.46-3.92-1.34-6.19-2.7-2.65-1.58-4.69-3.2-6.08-4.79-1.66-1.9-2.94-4.05-3.9-6.58-.7-1.83-1.42-6.46-1.71-9.02l-10.26-74.22-.07-.36c-.52-2.1-1.63-5.87-3.27-7.56-2.01-2.07-3.95-2.39-5.67-2.67l-.1-.02c-2.11-.34-5.24-.26-7.47.73-2.28,1.01-3.62,2.25-4.78,4.42-1.05,1.97-1.31,5.7-1.36,7.75v.23s3.59,35.75,3.59,35.75c3.38,36.8,5.48,56.35,6.24,58.11.22.51.37.91.51,1.28.54,1.46,1.02,2.6,2.68,5.03,2.31,3.39,8.11,9.55,11.23,12.5,3.1,2.93,5.18,4.83,8.08,6.47,2.96,1.67,6.53,2.88,9.01,3.6,2.95.85,4.36,1.01,8.39,1.38.58.05,1.03.1,1.42.15.98.11,1.71.18,2.76.18,1.78,0,4.47-.21,10.87-.81,11.88-1.11,139.53-16.31,144.95-16.95h.07c.58-.09,1.44-.21,2.48-.36l.02.17-3.16.29.32,3.42,3.18-.29-.32-3.42,3.16-.29-.03-.32c9.3-1.33,25.49-3.67,27.56-4.19.92-.23,9.66-2.59,21.76-5.86,19.09-5.16,47.15-12.74,52.95-14.23l.35.17.95-.45c.6,1.23,1.5,3.36,2.21,5.02,1.79,4.2,3.81,8.96,5.62,11.66,3.14,4.69,5.76,7.32,9.23,10.27,3.79,3.23,7.05,5.32,10.9,6.99,3.93,1.71,9.08,3.02,14.12,3.61,4.24.49,8.6.42,13.74-.24,5.03-.64,9.51-1.72,13.68-3.3,4.91-1.85,10.13-4.86,13.37-7.06,3.58-2.42,5.56-3.97,8.51-7.23,2.03-2.24,5.81-6.82,8.44-12.29,2.23-4.65,4.46-14.65,4.56-15.07l5.31-42.09.03-.35c.02-.99.21-9.76-.48-13.37Zm-6.51,13.03l-5.21,41.42c-.63,2.8-2.47,10.21-4,13.41-2.24,4.68-5.55,8.66-7.32,10.62-2.45,2.71-3.95,3.91-7.24,6.13-2.78,1.88-7.58,4.66-11.92,6.31-3.66,1.38-7.61,2.33-12.1,2.91-4.55.58-8.38.66-12.04.23-4.39-.51-8.81-1.63-12.13-3.07-3.22-1.4-5.87-3.11-9.15-5.9-3.14-2.67-5.23-4.77-7.95-8.83-1.44-2.15-3.41-6.78-4.99-10.5-2.37-5.58-3.11-7.23-4.34-8.2-2.1-1.66-4.86-1.43-6.59-.73v.02c-2.22.47-7.01,1.76-18.38,4.82-10.73,2.88-24.23,6.53-35.42,9.56-11.15,3.01-20.78,5.62-21.64,5.83-1.38.34-13.02,2.06-23.59,3.58l-.17-1.55-3.15.35-.38-3.41,3.15-.35-.38-3.41-3.17.35.38,3.41-3.15.35.38,3.41,3.15-.35.18,1.65c-1.08.15-2.13.3-3.14.45l-.19-1.75-3.17.35.2,1.83c-10.13,1.21-132.75,15.8-144.12,16.86-9.76.91-10.23.86-12.2.64-.44-.05-.94-.1-1.57-.16-3.82-.35-4.71-.44-7.07-1.13-3.04-.88-5.64-1.91-7.51-2.97-2.13-1.21-3.76-2.66-6.71-5.46-3.28-3.1-8.47-8.74-10.25-11.36-1.3-1.91-1.53-2.52-1.9-3.52-.16-.42-.32-.87-.55-1.42-.78-3.57-3.95-36.19-5.79-56.21l-3.56-35.33c.07-1.83.33-3.93.54-4.44.41-.78.59-.94,1.43-1.31.62-.28,2.26-.43,3.51-.23l.1.02c1.3.21,1.39.25,1.71.57.38.56,1.08,2.52,1.52,4.26l10.23,73.96c.09.75.88,7.38,2.12,10.63,1.26,3.32,2.96,6.16,5.17,8.69,1.9,2.17,4.44,4.2,7.76,6.19,2.89,1.73,5.55,2.88,8.13,3.5,2.52.61,5.31.8,8.27.56,2.76-.22,6.32-1.88,7-2.21l.2-.1c.43-.24,43.57-24.51,66.15-34.6,14.56-6.5,38.77-15.07,54.8-20.74,14.26-5.04,16.18-5.77,17.12-6.46.37-.27.75-.52,1.11-.76,1.58-1.05,3.55-2.35,4.56-4.84.94-2.33,1.08-5.17.42-8.44-.52-2.61-1.45-5.9-3.98-8.14-2.36-2.09-7.16-2.83-8.57-3l-.19-.02-80.18-1.2c-.59.02-5.76.03-9.24,1.88-3.45,1.84-6.01,5.42-6.33,5.87l-32.98,48.99c-1.55,2.42-3.89,5.55-4.78,6.17-1.63,1.14-2.56,1.34-3.54,1.29-.5-.03-.8-.19-1.98-.92-.52-.32-1.09-.67-1.76-1.04l-.49-.27c-1.97-1.08-5.65-3.1-7-4.55-.91-.98-1.84-2.9-2.28-4.04l-7.3-38.17c-.06-1.01-.1-3.1.17-4.23.45-1.9,1.06-3.6,2.55-5.7,1.61-2.26,5.54-5.85,7.64-7.2,1.71-1.1,1.96-1.16,3.55-1.54l.62-.15c1.32-.32,5.26-.55,7.53-.62h261.33l.56-.05c.6-.1,5.99-.99,8.83-2.1,2.85-1.12,5.08-2.38,7.96-4.5,2.49-1.84,5.31-4.48,8.61-8.09,1.48-1.61,2.66-3.67,3.81-5.66.82-1.42,2.05-3.56,2.66-3.98.83-.5,1.86-.42,2.24-.36l56.68,25.25c2.24,1.56,5.59,4.17,6.54,5.45,1.04,1.42,1.16,2.1,1.57,4.38.08.42.16.88.25,1.38.41,2.13.44,8.23.36,11.71Z"></path>
        <polygon points="258.56 253.28 255.4 253.57 255.72 256.99 258.89 256.69 258.58 253.28 261.74 252.98 261.42 249.57 258.25 249.86 258.56 253.28"></polygon>
        <rect x="261.89" y="252.83" width="3.19" height="3.43" transform="translate(-22.27 25.28) rotate(-5.27)"></rect>
        <rect x="261.26" y="245.99" width="3.19" height="3.43" transform="translate(-21.65 25.2) rotate(-5.27)"></rect>
        <rect x="253.1" y="230.92" width="3.19" height="3.43" transform="translate(-23.93 29.28) rotate(-6.28)"></rect>
      </g>
    </g>
  </g>
</svg>
