<svg id="Livello_2" xmlns="http://www.w3.org/2000/svg" viewBox="0 0 520 380" fill="currentColor">
  <defs>
    <style>.cls-1-wrap{fill:none;}</style>
  </defs>
  <g id="spa">
    <g>
      <g>
        <path d="m499.11,95.28l-1.99-2.7c-5.5-7.5-11.4-15.75-16.61-23.02-5.5-7.69-10.25-14.32-13.02-17.97-.52-.68-.99-1.33-1.43-1.94-5.26-7.27-8.74-9.64-24.63-5.56l-.78.2q-16.14,4.14-20.43,2.85l-.36-.11c-.82-.25-1.87-2.11-2.8-3.75-3.08-5.48-8.24-14.64-26.22-7.7-13,5.02-58.75,18.95-99.11,31.24-36.29,11.05-58.71,17.9-62.28,19.51-2.96,1.33-29.6,13.55-54.08,31.78-20.58,15.33-23.13,15.89-25.92,16.51-2.19.49-4.47.7-6.89.92-10.85.99-23.14,2.11-35.39,27.56-2.52,4.26-38.09,34.72-41.51,37.26v.02c-4.7,3.59-37.28,37.23-42.93,52.12-2.07,5.45-4.78,10.99-7.18,15.88-2.25,4.59-4.19,8.56-5.27,11.72-.88,2.59-.33,4.54.29,5.72,1.11,2.12,3.32,3.63,6.75,4.61,1.96.56,2.42.69,42.4-23.39,11.25-6.77,22.51-13.62,29.93-18.14l1.6,2.63,2.75-1.67,1.68,2.77-2.75,1.67,1.68,2.77,2.77-1.68-1.68-2.77,2.75-1.67-1.68-2.77-2.75,1.67-1.6-2.64c1.04-.64,1.96-1.2,2.75-1.68l1.61,2.64,2.77-1.68-1.61-2.65c.18-.11.29-.18.32-.2l34-20.45c.57-.37,1.47-.78,2.13-.98,0,.28,0,.66-.05,1.16-.48,4.41-.66,7.98,1.7,10.47,2.86,3.02,7.32,2.77,18.08,2.18,1.72-.1,3.62-.2,5.7-.3,34.8-1.71,60.2-13.06,78.76-21.35,6.48-2.9,12.08-5.4,16.94-6.99,4.8-1.57,11.64-2.91,22.09.67,18.4,6.31,42.69,17.76,55.71,30.98,4.64,4.71,11.49,17.62,18.11,30.11,6.63,12.5,12.88,24.3,17.71,29.56.52.57,1.12,1.23,1.79,1.96,10.89,12.03,41.87,46.25,72.78,46.25,3.34,0,6.68-.4,9.99-1.27,8.44-2.22,16.18-14.64,22.4-24.63,1.35-2.17,2.63-4.22,3.76-5.91,2.61-3.89,5.56-8.3,4.47-13.55-.97-4.67-4.8-8.95-12.44-13.88-3.64-2.35-7.71-4.85-11.65-7.27-11.22-6.9-26.58-16.35-28.06-20.49-1.4-3.92-3.32-9.28,3.89-18.37,4.29-5.41,5.66-11.61,3.87-17.48-1.96-6.4-7.57-11.62-15-13.96-16.46-5.2-71.97-25.28-78.35-31.75-9.27-9.42-12.31-15.14-9.94-42.3.4-4.62,6.54-12.8,21.27-15.1,7.5-1.17,38.87-7.94,50.67-10.61,4.05-.92,11.28-3.44,19.64-6.36,8.73-3.05,18.63-6.51,25.38-8.22,4.63-1.18,8.1-.69,10.32,1.45,4.38,4.21,9.65,12.31,15.66,24.07l.25.48c1.77,3.44,6.72,7.64,12.41,8.63,4.68.82,9.07-.55,12.72-3.95,10.17-9.49,4.15-17.65-5.82-31.18ZM113.28,166.1c10.61-22.03,19.98-22.89,29.9-23.79,2.52-.23,5.13-.47,7.84-1.07,3.87-.86,6.67-1.48,28.42-17.68.13-.1.27-.2.4-.29-2.86,4.01-4.58,5.38-4.58,5.38-.16.11-16.09,11.31-24.64,15.39-1.86.89-4,.86-6.48.83-7.4-.08-16.61-.19-27.69,21.32-1.63,3.17-29.94,28.94-37,32.26-.85.4-1.69.82-2.52,1.25,12.12-10.22,34.29-29.33,36.34-33.59Zm-95.14,117.43c-1.16-.44-1.48-.8-1.51-.8h0s0-.17.1-.44c.94-2.76,2.8-6.54,4.94-10.92.23-.46.46-.93.69-1.4-.53,2.32-.86,4.75.92,6.09.61.46,1.3.65,2.03.65,1.49,0,3.13-.79,4.52-1.58,4.59-2.61,33.61-20.06,58.28-34.95l.75,1.23c-26.59,16.22-64.03,38.8-70.71,42.13Zm110.48-66.1l-33.91,20.39h-.02c-1,.62-2.03,1.25-3.07,1.89l-.74-1.22c17.33-10.46,31.89-19.29,33.28-20.18,4.75-3.05,8.97-4.39,10.75-3.41.18.1.33.24.47.4-2.93-.16-5.81,1.51-6.75,2.13Zm371.66-95.96c-2.08,1.94-4.34,2.66-6.9,2.22-3.49-.61-6.66-3.36-7.52-5.03l-.24-.47c-2.37-4.64-9.59-18.75-17.01-25.88-2.78-2.67-7.92-5.38-16.72-3.14-7.03,1.79-17.08,5.3-25.95,8.4-7.83,2.73-15.22,5.32-18.9,6.15-11.4,2.57-42.98,9.39-50.22,10.52-16.75,2.62-26.26,12.67-27.01,21.25-2.46,28.21.64,36.27,11.87,47.68,8.79,8.93,74.03,31.22,81.15,33.47,5.29,1.67,9.23,5.21,10.54,9.46,1.13,3.71.21,7.59-2.69,11.24-9.57,12.07-6.58,20.42-4.97,24.91,2.14,5.96,13.1,13.04,30.9,24,3.91,2.4,7.95,4.89,11.53,7.2,5.73,3.69,8.92,6.9,9.46,9.53.47,2.28-.99,4.69-3.46,8.37-1.19,1.78-2.5,3.88-3.88,6.1-4.99,8.01-12.53,20.11-18.35,21.64-29.97,7.87-64.6-30.39-75.99-42.96-.68-.75-1.28-1.42-1.81-2-4.23-4.61-10.57-16.58-16.71-28.14-7.17-13.52-13.93-26.28-19.27-31.7-13.85-14.06-39.22-26.08-58.35-32.64-5.69-1.95-10.56-2.63-14.69-2.63-4.94,0-8.81.98-11.73,1.94-5.2,1.7-10.94,4.27-17.6,7.24-18.06,8.07-42.79,19.12-76.31,20.76-2.1.1-4.01.21-5.74.3-6.03.33-11.73.65-12.71,0-.18-.34-.31-1.5.08-5.1.26-2.37,0-4.3-.79-5.76-.07-3.46-1.22-5.84-3.44-7.05-4.18-2.28-10.42.68-14.92,3.56-3.39,2.18-86.12,52.13-94.14,56.69-.79.45-1.36.71-1.75.85.09-.74.34-1.78.5-2.42.21-.88.41-1.71.49-2.45.55-4.92,2.15-11.13,3.57-15.86,4.93-9.12,17.09-23.04,26.6-33.19,7.12-6.27,15.31-12.27,23.99-16.36,7.54-3.55,36.56-29.57,38.89-34.09,9.92-19.26,17.4-19.18,24.01-19.1,2.75.03,5.57.06,8.29-1.23,8.86-4.23,24.57-15.27,25.27-15.76.19-.14,4.46-3.39,10.77-14.76,17.07-11.52,34.93-20.67,43.83-24.68,3.35-1.51,31.58-10.1,61.46-19.2,40.47-12.32,86.35-26.29,99.58-31.4,12.48-4.82,14.96-.42,17.83,4.68,1.55,2.76,3.32,5.9,6.77,6.94l.36.11c6.12,1.85,6.79,1.67,24.1-2.77l.78-.2c12.88-3.31,13.84-1.98,17.41,2.95.47.65.97,1.34,1.52,2.07,2.71,3.57,7.44,10.18,12.91,17.82,5.22,7.29,11.13,15.55,16.66,23.09l2,2.72c10.67,14.48,12,17.16,6.66,22.15Z"/>
        <rect x="99.04" y="249.87" width="3.24" height="3.24" transform="translate(-115.97 88.86) rotate(-31.29)"/>
      </g>
    </g>
  </g>
</svg>