<?xml version="1.0" encoding="UTF-8"?>
<svg xmlns="http://www.w3.org/2000/svg" id="Livello_2" viewBox="0 0 520 380" fill="currentColor">
  <defs>
    <style>.cls-1-wrap{fill:none;}</style>
  </defs>
  <g id="valencia">
    <path d="m477.45,101.93c-5.62-3.7-15.04-4.11-21.45,2.4-3.77,3.84-7.81,8.27-12.08,12.97-6.65,7.31-13.52,14.87-20.01,20.81-5.91,5.42-9.62,11.21-8.48,21.87.33,3.09.66,6.09.98,9.05,1.52,13.89,2.96,27.01,3.53,41.4.17,4.27-.25,7.38-1.25,9.23-1.13,2.11-3.48,3.33-5.21,3.44-12.2.81-23.02.62-34.48.41-5.11-.09-10.4-.19-15.85-.19h-.06c-3.79,0-7.08-3.66-8.7-5.84-1.86-2.5-3.13-7.79-3.24-11.24-.08-2.57,1.03-6.9,3.71-10.79l11.68-17c11.74-17.09,22.83-33.23,36.07-52.36,3.46-5,3.61-11.84.38-18.3-3.34-6.68-9.46-11.14-15.59-11.38-29.14-1.12-58.8-1-87.48-.89-12.78.05-26,.1-39.08.05-4.5-.04-10.13,1.31-14.75,3.47-20.27,9.48-38.16,17.73-54.7,25.2-5.36,2.42-9.8,6.63-11.9,11.26-1.89,4.18-2.67,10.37-1.88,15.03.97,5.77,3.07,10.25,6.59,14.1,3.5,3.83,8.38,6.14,14.11,6.69,14.99,1.43,31.97,1.55,51.91.34,3.83-.23,7.97-1.98,11.36-4.8,4.75-3.94,9.06-8.49,13.23-12.9,3.73-3.93,7.58-8,11.64-11.5l.1-.09c3.35-2.89,7.14-6.16,10.88-6.98,6.7-1.47,8.56-1.39,18.89-.96l3.93.16c9.73.39,9.97.44,13.79,1.73.43.18,3.52,1.55,5.59,4.31,2.44,3.27,2.28,5.65,1.72,9.19-.51,3.2-3.41,5.54-5.74,6.57-7.97,3.52-15.18,6.82-22.15,10-12.04,5.5-23.41,10.7-37.47,16.51-11.04,4.56-22.58,10.4-33.73,16.04-6.13,3.1-12.46,6.31-18.54,9.2-3.58,1.71-6.65,1.42-9.39-.86-1.07-.89-2.13-1.78-3.19-2.67-6.87-5.76-13.97-11.72-22.13-16.54-8.08-4.77-13.69-6.96-21.82-9.56-3.72-1.19-10.2-2.57-14.44-3.08-9.8-1.18-18.73-1.12-29.86.21-8.25.98-17.17,3.4-23.87,6.48-9.6,4.4-16.16,7.86-23.3,13.5-6.31,4.98-12.9,11.47-17.62,17.38-7.67,9.57-13.2,18.17-19.09,29.69-1.58,3.1-3.76,7.34-3.56,11.7.14,3.15,1.32,7.84,4.19,10.72,2.9,2.9,7.53,4.86,11.52,4.87,12.16.04,24.48.05,36.83.05.39,0,.78,0,1.17,0,11.14,1.27,29.29,4.02,40.36,5.69,5.79.88,9.97,1.51,11.15,1.63.33.04.71.05,1.15.05,1.95,0,5.05-.33,9.62-.81,4.98-.53,11.41-1.21,19.18-1.75v.3s2.63.06,2.63.06v-.53c.87-.05,1.75-.11,2.64-.16l-.02.75-2.62-.06-.06,2.8-2.61-.06-.06,2.84,2.63.06.06-2.8,2.61.06.06-2.84,2.62.06.02-.94c3.79-.18,7.83-.32,12.12-.39,15.54-.25,31.57-.24,47.08-.25,7.12,0,14.24,0,21.34-.02,10.34-.03,20.68-.04,31.03-.05,17.33-.01,35.25-.03,52.88-.16,10.06-.08,20.46-.29,31.79-.65,2.88-.09,5.8-.28,8.62-.46,2.71-.17,5.52-.36,8.27-.45,3.91-.13,7.92-.13,11.79-.14,6.39,0,12.99,0,19.43-.59,4.4-.4,8.71-1.68,12.86-3.8,2.3-.75,4.6-1.78,6.72-3.19,5.44-3.63,9.63-9.88,11.22-16.72,2.39-10.32,4.86-21.09,7.36-32.06,7.6-33.24,15.45-67.6,23.06-96.68,1.35-5.16-.53-12.82-6.67-16.87Zm-94.23,167.5c-2.8.18-5.69.37-8.52.46-11.3.36-21.67.58-31.71.65-17.62.13-35.53.15-52.86.16-10.34,0-20.69.02-31.03.05-7.09.02-14.21.02-21.33.02-15.52,0-31.56,0-47.13.25-17.32.28-30.66,1.69-39.48,2.63-5.03.53-8.67.92-10.13.76-1.11-.12-5.49-.78-11.02-1.62-5.31-.8-11.82-1.79-18.37-2.74,11.99-.01,23.95-.03,35.75-.06,21.24-.04,43.19-.08,64.69-.07,34.24,0,69.06-.13,102.72-.27,22.65-.09,45.8-.19,68.96-.24-.17.01-.35.02-.52.03Zm94.13-152.41c-7.63,29.19-15.5,63.61-23.11,96.9-2.5,10.96-4.96,21.72-7.36,32.03-.92,3.98-3.58,9.34-8.28,12.48-5.32,3.55-12.84,3.94-15.85,3.94h-.03c-35.97-.03-72.58.12-107.97.27-33.65.14-68.43.28-102.69.27-11.91,0-23.96,0-35.96.02l.03-1.24,2.6.06.06-2.84-2.63-.06-.06,2.7-2.59-.06.06-2.73-2.63-.06-.06,2.84,2.62.06-.03,1.34c-8.77.01-17.5.03-26.11.04-31.69.06-64.46.12-96.16.02-2.16,0-4.99-1.22-6.59-2.82-1.12-1.12-2.04-3.74-2.15-6.08-.11-2.5,1.57-5.8,2.8-8.2,5.66-11.07,10.97-19.33,18.32-28.5,4.42-5.51,10.58-11.59,16.5-16.26,6.62-5.23,12.56-8.35,21.88-12.63,6.07-2.79,14.22-4.99,21.78-5.89,5.57-.66,10.56-.99,15.38-.99,4.3,0,8.47.26,12.81.78,3.74.45,9.88,1.76,13.14,2.8,7.63,2.44,12.88,4.49,20.39,8.92,7.66,4.52,14.23,10.04,21.19,15.87,1.07.9,2.14,1.8,3.21,2.69,4.85,4.04,10.85,4.68,16.89,1.8,6.15-2.93,12.52-6.16,18.68-9.28,11.04-5.59,22.46-11.36,33.24-15.82h0c14.18-5.86,25.61-11.09,37.71-16.62,6.95-3.18,14.13-6.46,22.06-9.96,4.13-1.82,8.88-5.9,9.82-11.87.58-3.63,1.37-8.6-3.02-14.48-3.4-4.55-8.2-6.47-8.73-6.68-.04-.02-.09-.03-.13-.05-4.74-1.6-5.63-1.72-15.84-2.12l-3.91-.16c-10.59-.45-13.1-.55-20.69,1.11-5.47,1.2-9.97,5.09-13.95,8.51l-.1.09c-4.33,3.73-8.3,7.93-12.15,11.99-4.22,4.45-8.2,8.65-12.62,12.32-2.24,1.86-4.98,3.06-7.31,3.2-19.58,1.18-36.2,1.08-50.83-.32-2.77-.26-6.69-1.25-9.61-4.45-2.61-2.85-4.11-6.1-4.85-10.54-.55-3.27.04-8.09,1.35-10.99,1.39-3.08,4.61-6.06,8.4-7.77,16.56-7.49,34.48-15.75,54.78-25.24,3.65-1.71,8.23-2.81,11.68-2.81h.07c13.11.06,26.34,0,39.14-.05,28.61-.11,58.19-.23,87.19.88,3.57.14,7.42,3.16,9.6,7.51,2.07,4.13,2.11,8.31.13,11.18-13.25,19.13-24.34,35.28-36.08,52.38l-11.67,16.99c-3.82,5.55-5.05,11.38-4.94,14.98.15,4.66,1.78,11.38,4.61,15.19,4.21,5.67,9.16,8.67,14.32,8.67h.05c5.39,0,10.64.09,15.73.19,11.61.21,22.58.41,35.07-.42,3.66-.24,8.45-2.54,10.91-7.11,2.16-4.02,2.22-9.24,2.08-12.82-.57-14.64-2.03-27.87-3.57-41.89-.32-2.95-.65-5.95-.98-9.03-.84-7.84,1.55-11.66,6.25-15.96,6.72-6.16,13.7-13.84,20.46-21.26,4.22-4.64,8.21-9.03,11.89-12.77,3.65-3.71,9.27-3.66,12.6-1.47,3.25,2.14,4.48,6.47,3.75,9.25Z"></path>
    <rect x="175.7" y="278.27" width="2.84" height="2.63" transform="translate(-106.2 450.67) rotate(-88.77)"></rect>
  </g>
</svg>
