<?xml version="1.0" encoding="UTF-8"?>
<svg xmlns="http://www.w3.org/2000/svg" id="Livello_2" viewBox="0 0 520 380" fill="currentColor">
  <defs>
    <style>.cls-1-wrap{fill:none;}</style>
  </defs>
  <g id="Watkins_Glen_International">
    <g>
      <g>
        <rect x="144.31" y="288.87" width="3.55" height="3.3" transform="translate(-159.44 401.87) rotate(-83.33)"></rect>
        <path d="m500.66,246.41h0c-1.17-4.05-3.67-8.08-6.87-11.04-3.22-2.99-7.24-6.09-12.55-6.42-14.14-.88-28.62-.62-42.63-.37-13.78.25-28.03.5-41.65-.36-4-.25-8.83-2.04-10.98-4.08-1.85-1.75-3.77-6.3-4.69-11.08-.35-1.82.12-4.85,1.27-8.32,1.14-3.43,2.51-7.21,4.22-8.6,9.6-7.81,20.59-14.94,31.23-21.83,5.64-3.66,11.47-7.44,17.11-11.33,1.47-1.01,3.07-1.98,4.77-3,3.8-2.29,8.11-4.88,11.64-8.58,4.08-4.27,6.34-9.74,8.01-14.52l.37-1.05c1.77-5.02,3.98-11.27,3.17-17.64-.84-6.57-4.67-12.32-8.2-17.2-3.54-4.89-7.5-8.37-11.79-10.35-3.91-1.8-9.82-4.53-15.73-5.03-.5-.04-.98-.08-1.47-.08-1.53-.03-3.05.12-4.5.43-4.39.93-6.69,4.22-8.37,6.63-.24.34-.47.67-.7.99-.64.87-1.56,2.11-2.28,2.78-.26.24-.42.35-.48.39-11.72,1.05-15.17,1.18-21.49.79-.11-.08-.25-.2-.43-.36-.53-.51-1.21-1.29-1.99-2.2l-.87-1c-2.2-2.51-5.86-6.68-11.69-6.68-.07,0-.13,0-.2,0-34.1.57-68.37.53-101.51.49-27.42-.03-55.78-.06-84.36.24h-.49c-5.2.06-11.1.12-16.75,1.63-3.56.96-7.1,3.07-10.52,6.29-8.13,7.65-16,15.79-23.6,23.66-9.21,9.53-18.73,19.39-28.57,28.17-2.27,2.02-5.81,3.6-9.47,4.22-5.98,1.01-12.24,1.27-18.87,1.55-6.78.28-13.8.58-20.73,1.73-4.44.74-9.03,2.93-12.92,6.17-4.62,3.85-7.42,7.78-8.56,12.02-7.1,26.43-13.29,55.11-17.89,82.95-.86,5.22,2.09,9.15,3.85,11.5,1,1.33,4.03,5.37,9.24,5.98,18.2,2.16,36.95,3.35,55.08,4.51,8.23.52,16.74,1.07,25.05,1.69,8.91.67,17.98,1.49,26.91,2.32l-.22,1.85,3.26.38-.41,3.53-3.26-.38-.41,3.53,3.28.38.41-3.53,3.26.38.41-3.53-3.26-.38.22-1.92c1.08.1,2.17.2,3.24.3,0,0,.02,0,.03,0l-.23,2,3.28.38.24-2.07c22.26,2.09,45.17,4.16,67.47,4.37.05,0,.09,0,.14,0,5.57,0,11.26-3.2,15.25-8.57,3.6-4.86,4.68-11.04,5.31-17,.95-8.96,1.18-18.05,1.4-26.84.24-9.47.46-18.41,1.51-27.22.24-2,1.55-4.71,3.8-7.82,3.16-4.37,4.55-4.9,4.8-4.97,30.23-7.72,62.46-13.48,90-18.08,1.74-.29,4.41.16,6.64,1.13,1.41.61,3.31,2.23,4.4,3.76l.11.15c.61.86,1.31,1.83,1.61,2.49.03.07.06.13.08.18-5.66,13.12-12.79,26.48-19.69,39.4-6.36,11.91-12.93,24.22-18.54,36.63-1.77,3.93-1.31,7.81-.97,10.65.06.48.11.94.15,1.37.21,2.27.53,5.69,2.84,8.74.9,1.18,2.01,2.56,3.5,3.78,2.13,1.75,4.27,2.6,6.54,2.6.11,0,.23,0,.34,0,44.95-1.69,87.45-4.56,132.44-7.59,7.29-.49,14.62-.99,22-1.48,2.35-.16,5.02-.9,8.16-2.26,2.5-1.09,5.33-2.52,7.4-4.87,1.78-2.03,2.78-4.5,3.58-6.66.66-1.77,1.28-3.79,1.86-6,1.12-4.29,1.1-8.85-.05-12.83Zm-352.82,28.69l-1.44-.17v.03c-1.09-.1-2.18-.2-3.27-.3v-.11s3.27.38,3.27.38l.41-3.53-3.27-.38-.41,3.53-3.26-.38-.02.19c-9.14-.85-18.28-1.68-27.39-2.36-26.72-2.01-53.67-3.06-79.77-6.15-.87-.1-2.67-1.41-3.71-2.79-1.41-1.88-2.49-4.34-2.33-5.31.35-2.13.74-4.25,1.11-6.38.12,1.28.32,2.62,1.03,3.86.67,1.17,1.47,2.72,2.52,4.09,1.06,1.37,2.49,2.63,4.4,2.83,34.36,3.56,69.92,3.64,104.9,5.78l-.32,2.73,3.28.38.34-2.9c1.09.07,2.19.14,3.28.21l-.36,3.07,3.28.38.38-3.21c7.64.57,15.25,1.24,22.8,2.12,7.24.84,14.03,4.78,21.14,8.14-15.39-.84-30.95-2.28-46.56-3.74Zm345.01-17.9c-.36,1.39-.92,3.39-1.61,5.24-.69,1.85-1.62,3.58-2.1,4.13-.5.57-2.43,1.89-4.51,2.79-2.08.9-4.43,1.5-5.47,1.57-52.33,3.48-102.03,7.1-154.19,9.06-.17,0-.68-.12-1.41-.73-.73-.6-1.56-1.58-2.22-2.45-.52-.68-1-2.64-1.18-4.59-.31-3.3-.67-6.26.08-7.91,11.55-25.58,27.4-50.7,38.53-76.68.99-2.31.37-4.57-.38-6.23-.75-1.66-1.76-3-2.48-4.01-1.91-2.67-4.61-5.12-7.8-6.5-3.24-1.4-7.19-2.31-11.16-1.64-30.2,5.05-61.15,10.64-90.7,18.19-4.82,1.23-7.37,5.36-9.33,8.07-2.26,3.12-4.77,7.01-5.31,11.62-2.15,18.13-1.05,36.62-2.91,54.16-.51,4.84-1.61,10.16-3.75,13.03-1.89,2.55-6.14,5.3-8.79,5.27-5.08-.05-10.2-.2-15.33-.42-.13-.18-.31-.33-.54-.42-8.61-3.39-16.96-9.35-26.72-10.47-45.46-5.26-92.73-3.91-137.64-8.56-.93-.1-1.81-.79-2.68-1.91-.86-1.12-1.62-2.58-2.33-3.82-.71-1.24-.69-3.32-.96-5.47-.26-2.11-.42-4.28-.57-6.46,4.1-22.26,9.12-44.78,14.95-66.47.72-2.69,3.27-5.7,5.92-7.91,2.54-2.11,6.01-3.88,9.1-4.4,12.4-2.07,26.17-1.02,39.6-3.29,4.77-.81,9.68-2.79,13.49-6.19,18.39-16.41,34.68-35.35,52.37-51.98,2.13-2.01,4.75-3.73,7.07-4.36,4.51-1.21,9.86-1.28,15.21-1.34,63.25-.67,123.62.31,185.88-.73,1.72-.03,3.58,1.48,5.7,3.9,1.06,1.21,2.13,2.52,3.36,3.71,1.23,1.18,2.73,2.45,4.97,2.6,7.24.48,11.46.3,23.35-.76,2.18-.2,3.93-1.37,5.24-2.6,1.31-1.23,2.31-2.61,3.25-3.9,1.88-2.58,3.6-4.34,4.2-4.47.49-.1,1.05-.18,1.64-.19s1.22.04,1.87.11c3.95.46,9.02,2.31,13.11,4.2,3.11,1.44,6.3,4.57,8.6,7.76,3.1,4.29,6.2,9.35,6.73,13.49.53,4.12-1.31,9.74-3.13,14.95-1.52,4.35-3.53,8.79-6.23,11.62-3.7,3.88-9.6,6.66-15.14,10.47-16.06,11.07-33.57,21.13-48.85,33.56-4.16,3.39-5.54,8.51-6.8,12.31-1.2,3.61-2.42,7.99-1.57,12.42.97,5.08,2.79,11.39,7.11,15.48,4.21,3.98,10.42,5.92,16.05,6.27,28.14,1.76,56.9-.97,84.28.73,2.2.14,5.23,2.11,7.57,4.28,1.98,1.84,3.86,4.8,4.59,7.3.7,2.44.64,5.94-.04,8.56Z"></path>
      </g>
    </g>
  </g>
</svg>
