<?xml version="1.0" encoding="UTF-8"?>
<svg xmlns="http://www.w3.org/2000/svg" id="Livello_2" viewBox="0 0 520 380" fill="currentColor">
  <defs>
    <style>.cls-1-wrap{fill:none;}</style>
  </defs>
  <g id="Zandvoort">
    <path d="m422.21,291.22c-.58-8.66-2.69-18.15-6.11-27.46-3.93-10.73-7.4-19.52-13.21-26.99-3.4-4.36-9.94-6.97-14.65-7.29-4.72-.32-12.42,1.04-17.38,4.19-28.97,18.38-58.47,36.6-78.15,48.72-2.28,1.4-8.97-.35-11.3-2.51-.62-.57-2.04-2.59-2.07-9.01.16-.56,1.05-2.59,5.98-8.82,2.73-3.45,4.65-7.78-1.78-13.82-3.39-3.18-6.72-5.95-9.94-8.62-4.51-3.74-8.77-7.28-13.01-11.76-14.96-15.83-26.5-29.34-36.34-42.53-6.72-9.01-13.04-19.5-19.32-32.07-6.73-13.47-13.02-29.12-19.23-47.85-1.84-5.56-2.62-11.88-2.18-17.79.19-2.63,2.21-5.93,4.8-7.84,2.61-1.92,6.75-3.16,9.85-2.93,3.74.27,8.03,2.09,10.43,4.43,7.61,7.39,13.97,17.13,18.67,24.79,4.2,6.85,8.23,12.53,14.19,18,3.66,3.35,9.98,6.63,14.96,6.44,4.71-.19,8.96-2.33,11.38-5.74,2.89-4.08,4.12-9.15,5.31-14.06.25-1.03.5-2.07.77-3.08,2.55-9.74,3.19-19.98,1.86-29.62-1.27-9.2-4.49-19.19-8.83-27.41-2.12-4.01-10.24-8.68-14.53-9.11-3.92-.39-8.3-.74-12.93-1.12-7.64-.62-15.53-1.26-21.98-2.1-8.04-1.05-14.11-2.65-20.53-4.35-5.69-1.5-11.57-3.05-18.98-4.23-7.12-1.13-14.24-.95-20.05.5-5,1.25-10.29,4.01-14.9,7.79-4.81,3.94-9.09,9.01-11.74,13.93-2.29,4.25-3.73,9.77-4.4,16.88-.34,3.59-.35,8.98,1.51,14.33,1.31,3.77,2.52,7.4,3.71,10.92,4.64,13.83,8.65,25.78,15.44,38.92,4.56,8.82,12.84,14.79,15.57,16.75l.3.22c5.02,3.64,8.93,6.54,12.86,9.68,2.41,2.26,4.13,3.7,5.66,4.98,2.31,1.94,3.98,3.34,6.89,6.63.05.06.11.12.16.17,3.98,3.9,8.48,8.5,11.52,13.61,2.46,4.13,4.43,9.37,5.87,15.56,1.35,5.83,2.17,12,2.95,17.97.93,7.06,1.89,14.36,3.76,21.39,2.91,10.95,6.32,19.06,10.72,25.55,5.8,8.53,12.83,16.41,19.63,24.02,5.69,6.37,11.57,12.96,16.58,19.79,1.59,2.17,2.59,5.27,2.49,7.72-.11,2.53-2.2,5.67-4.08,7.13-1.77,1.37-4.87,1.96-8.3,1.56-2-.23-3.89-1.11-5.18-2.4-3.85-3.86-7.49-8.28-11.01-12.57-3.99-4.86-8.12-9.88-12.69-14.25-2.43-2.33-5.92-2.9-8.69-3.13-3.23-.28-6.82.08-10.1,1-4.08,1.15-8.07,2.69-11.92,4.18-3.55,1.38-7.23,2.8-10.86,3.85-5.28,1.54-10.04,2.82-14.81,2.99-7.41.27-15.08-.1-22.5-.45-7.69-.37-15.65-.75-23.46-.44-4.26.17-8.61,1.5-11.93,3.65-3.82,2.48-6.28,6.63-7.4,8.88-1.6,3.21-2.21,6.84-1.62,9.73.98,4.77,3.89,9.05,5.53,11.17,2.01,2.6,4.87,4.54,7.65,5.21,4.24,1.01,8.96,1.09,13.81,1.09,19.66,0,39.62-.26,58.92-.5,16.49-.21,33.49-.43,50.31-.49l.06,1.79,2.24-.07-.06-1.72c.73,0,1.46,0,2.19,0v-3.3s0,3.3,0,3.3h.04l.05,1.65-2.23.07.06,1.74-2.19.07.07,2.24,2.24-.07-.06-1.74,2.19-.07-.07-2.24,2.23-.07-.05-1.58c18.67-.03,36.38.13,53.52.27,26.38.22,51.29.42,78.96.07,9.14-.12,24.89-7.1,31.83-12.8,5.31-4.36,9.97-10.79,13.1-18.09,3-6.99,4.4-14.58,3.94-21.38Zm-238.46,45.82c-18.17.23-36.93.47-55.46.5,4.56-.07,9.11-.2,13.6-.32,5-.14,10.18-.29,15.24-.35,9.3-.12,18.6-.24,27.9-.37,7.69-.1,15.38-.2,23.07-.3,5.03-.06,10.06-.11,15.09-.15,3.5-.03,7.04-.06,10.6-.1l.02.61c-16.75.06-33.66.28-50.06.49Zm54.53-.5c-.74,0-1.49,0-2.23,0l-.02-.63c.74,0,1.49-.02,2.23-.03l.02.65Zm2.24,0l-.02-.68c3.97-.06,7.94-.12,11.88-.22,1.82-.05,3.63-.32,5.38-.58l.65-.1c1.47-.22,2.95-.5,4.39-.77,1.77-.33,3.61-.68,5.42-.91,1.02-.13,2.08-.27,2.96-.02,1.13.31,2.22.85,3.38,1.43,1.61.8,3.28,1.63,5.14,1.84.59.07,1.18.12,1.78.18-13.21-.1-26.81-.18-40.95-.16Zm171.68-26.55c-2.72,6.35-6.71,11.89-11.22,15.59-5.91,4.85-20.42,11.2-27.72,11.3-1.59.02-3.16.04-4.73.05-.09-.03-.18-.06-.28-.06-.81,0-59.5-1.32-60.09-1.34-3.16-.1-6.39-.12-9.51-.13-6.2-.03-12.61-.06-18.75-.75-1.52-.17-2.97-.89-4.51-1.65-1.19-.59-2.41-1.2-3.71-1.55-1.24-.34-2.55-.17-3.72-.03-1.86.24-3.72.59-5.52.92-1.42.27-2.88.54-4.32.75l-.65.1c-1.69.26-3.44.52-5.14.56-4.69.11-9.42.19-14.14.25l-.04-1.32-2.19.07-.06-1.83,2.23-.07-.07-2.24-2.24.07.07,2.24-2.23.07.07,2.24,2.19-.07.03.86c-4.3.05-8.58.09-12.79.13-5.03.04-10.06.09-15.1.15-7.69.1-15.38.2-23.07.3-9.3.12-18.6.25-27.9.36-5.08.06-10.26.21-15.27.35-10.17.29-20.69.58-30.86.21-.22,0-.45-.06-.67-.12-.59-.46-1.16-1.01-1.62-1.61-2.2-2.85-3.76-5.93-4.28-8.46-.29-1.41.14-3.6,1.06-5.44,1.39-2.77,3.29-5.12,5.09-6.29,2.32-1.5,5.53-2.47,8.59-2.59,1.92-.08,3.86-.11,5.81-.11,5.68,0,11.45.28,17.07.54,7.56.36,15.37.73,23.06.46,5.52-.2,10.91-1.65,16.42-3.25,3.91-1.14,7.72-2.61,11.4-4.04,3.88-1.5,7.54-2.92,11.32-3.99,2.54-.72,5.3-.99,7.75-.78.9.08,3.63.31,4.69,1.33,4.29,4.1,8.28,8.96,12.15,13.67,3.62,4.41,7.36,8.96,11.44,13.04,2.32,2.33,5.64,3.89,9.09,4.29,3.05.36,8.8.45,13.12-2.9,3.04-2.37,6.41-7.15,6.63-12.06.17-3.95-1.27-8.51-3.76-11.91-5.2-7.09-11.18-13.8-16.98-20.29-6.65-7.46-13.54-15.16-19.09-23.34-3.97-5.85-7.09-13.32-9.8-23.53-1.76-6.62-2.69-13.7-3.6-20.56-.81-6.12-1.64-12.46-3.07-18.6-1.59-6.86-3.82-12.73-6.62-17.45-3.42-5.75-8.23-10.69-12.49-14.87-3.19-3.61-5.2-5.29-7.52-7.23-1.48-1.24-3.15-2.64-5.48-4.82-.06-.06-.13-.12-.2-.17-4.07-3.25-8.07-6.22-13.21-9.95l-.32-.23c-2.41-1.73-9.73-7.01-13.56-14.42-6.56-12.69-10.49-24.42-15.05-37.99-1.19-3.54-2.41-7.19-3.73-10.98-1.14-3.3-1.56-7.4-1.17-11.55.58-6.21,1.77-10.9,3.63-14.35,2.26-4.18,5.94-8.54,10.11-11.95,3.82-3.12,8.31-5.49,12.32-6.49,4.97-1.24,11.16-1.38,17.42-.39,7.08,1.12,12.8,2.63,18.32,4.09,6.34,1.67,12.9,3.4,21.36,4.51,6.61.86,14.59,1.51,22.3,2.14,4.61.37,8.96.73,12.82,1.11,2.39.24,8.41,3.86,9.34,5.62,3.99,7.57,6.96,16.77,8.13,25.23,1.21,8.78.62,18.13-1.71,27.04-.27,1.05-.53,2.12-.8,3.19-1.04,4.3-2.12,8.75-4.28,11.8-1.22,1.72-3.61,2.85-6.25,2.96-2.87.13-7.65-2.34-10.24-4.71-5.42-4.96-9-10.02-13.02-16.58-4.9-7.99-11.56-18.17-19.7-26.07-3.53-3.43-9.24-5.89-14.55-6.28-4.66-.33-10.38,1.35-14.25,4.21-3.44,2.54-7.08,7.44-7.47,12.68-.5,6.76.39,13.99,2.5,20.35,6.3,19.04,12.71,34.98,19.59,48.73,6.46,12.92,12.98,23.74,19.94,33.06,9.99,13.4,21.69,27.1,36.83,43.12,4.51,4.78,9.13,8.61,13.59,12.31,3.15,2.61,6.4,5.31,9.63,8.35,2.87,2.7,2.54,3.13,1.12,4.91-6.17,7.8-7.41,10.66-7.41,12.76,0,6.83,1.37,11.41,4.18,14.02,3.95,3.66,13.78,6.66,19.26,3.29,19.69-12.12,49.22-30.37,78.22-48.76,3.15-2,9.28-3.46,13.4-3.17,3.6.24,8.04,2.38,9.89,4.75,5.22,6.71,8.49,15.03,12.22,25.21,3.2,8.72,5.18,17.59,5.72,25.63.39,5.77-.83,12.28-3.42,18.33Z"></path>
    <polygon points="238.94 351.01 238.87 348.77 241.1 348.7 241.02 346.46 238.78 346.53 238.86 348.78 236.63 348.85 236.7 351.09 238.94 351.01"></polygon>
    <rect x="238.17" y="330.82" width="2.24" height="2.24" transform="translate(-10.76 8.03) rotate(-1.88)"></rect>
  </g>
</svg>
